<svg width="34" height="34" viewBox="0 0 34 34" fill="none" xmlns="http://www.w3.org/2000/svg">
<path d="M16.9147 3.5802C9.53668 3.5802 3.54468 9.5651 3.54468 16.9503C3.54468 24.3354 9.52957 30.3203 16.9147 30.3203C24.2999 30.3203 30.2848 24.3354 30.2848 16.9503C30.2848 9.5651 24.2999 3.5802 16.9147 3.5802ZM10.4536 14.5264L10.9156 12.7566L9.50825 11.5838C9.33766 11.4416 9.33766 11.1786 9.50825 11.0364L10.9227 9.87785L10.4749 8.10797C10.4181 7.89473 10.5744 7.68149 10.7948 7.66727L12.6215 7.56065L13.2968 5.86185C13.3821 5.65572 13.6309 5.57753 13.8157 5.69837L15.351 6.68638L16.9005 5.71259C17.0853 5.59175 17.3341 5.67705 17.4194 5.88318L18.0804 7.58908L19.9072 7.70992C20.1275 7.72414 20.2839 7.93737 20.227 8.15061L19.765 9.92049L21.1724 11.0862C21.343 11.2284 21.343 11.4914 21.1724 11.6335L19.7579 12.7921L20.2057 14.562C20.2626 14.7752 20.1062 14.9885 19.8859 15.0027L18.0591 15.1093L17.3839 16.8081C17.2986 17.0142 17.0498 17.0924 16.865 16.9716L15.3297 15.9836L13.7801 16.9574C13.5953 17.0782 13.3465 16.9929 13.2612 16.7868L12.6002 15.0809L10.7735 14.96C10.5531 14.9458 10.3967 14.7326 10.4536 14.5193V14.5264ZM18.7059 24.1222L17.8103 24.8543L18.0947 25.9774C18.1515 26.1906 17.9951 26.4038 17.7748 26.418L16.6162 26.482L16.1826 27.5624C16.0973 27.7686 15.8485 27.8467 15.6637 27.7259L14.6899 27.1004L13.709 27.7188C13.5242 27.8396 13.2755 27.7543 13.1902 27.5482L12.7708 26.4678L11.6122 26.3896C11.3919 26.3754 11.2355 26.1622 11.2923 25.9489L11.5909 24.8259L10.7024 24.0866C10.5318 23.9445 10.5318 23.6815 10.7024 23.5393L11.598 22.8072L11.3137 21.6842C11.2568 21.4709 11.4132 21.2577 11.6335 21.2435L12.7921 21.1795L13.2257 20.0991C13.311 19.8929 13.5598 19.8148 13.7446 19.9356L14.7184 20.5611L15.6993 19.9427C15.8841 19.8219 16.1329 19.9072 16.2182 20.1133L16.6375 21.1937L17.7961 21.2719C18.0165 21.2861 18.1728 21.4993 18.116 21.7126L17.8174 22.8356L18.7059 23.5749C18.8765 23.717 18.8765 23.98 18.7059 24.1222ZM27.598 22.0893C27.6548 22.3025 27.4985 22.5158 27.2781 22.53L25.7712 22.6153L25.2097 24.0227C25.1244 24.2288 24.8756 24.307 24.6908 24.1862L23.4185 23.3687L22.1391 24.1719C21.9543 24.2928 21.7055 24.2075 21.6202 24.0013L21.0729 22.594L19.566 22.4945C19.3457 22.4802 19.1893 22.267 19.2461 22.0538L19.63 20.5895L18.4714 19.6228C18.3008 19.4807 18.3008 19.2177 18.4714 19.0755L19.6442 18.116L19.2746 16.6517C19.2177 16.4385 19.3741 16.2252 19.5944 16.211L21.1013 16.1257L21.6628 14.7184C21.7481 14.5122 21.9969 14.434 22.1817 14.5549L23.4541 15.3723L24.7335 14.5691C24.9183 14.4483 25.1671 14.5336 25.2524 14.7397L25.7997 16.1471L27.3066 16.2466C27.5269 16.2608 27.6833 16.474 27.6264 16.6873L27.2426 18.1515L28.4012 19.1182C28.5718 19.2603 28.5718 19.5233 28.4012 19.6655L27.2284 20.6251L27.598 22.0893Z" fill="#201F24"/>
<path d="M17 33C25.8366 33 33 25.8366 33 17C33 8.16344 25.8366 1 17 1C8.16344 1 1 8.16344 1 17C1 25.8366 8.16344 33 17 33Z" stroke="#201F24" stroke-width="1.61128" stroke-miterlimit="10"/>
</svg>
