<svg width="295" height="40" viewBox="0 0 295 40" fill="none" xmlns="http://www.w3.org/2000/svg">
<path d="M19.7543 5.08362C11.3918 5.08362 4.60022 11.8671 4.60022 20.2377C4.60022 28.6083 11.3837 35.3918 19.7543 35.3918C28.1249 35.3918 34.9084 28.6083 34.9084 20.2377C34.9084 11.8671 28.1249 5.08362 19.7543 5.08362ZM12.431 17.4905L12.9547 15.4844L11.3595 14.1551C11.1662 13.994 11.1662 13.6959 11.3595 13.5348L12.9628 12.2216L12.4552 10.2155C12.3908 9.97385 12.568 9.73216 12.8177 9.71605L14.8882 9.5952L15.6536 7.66972C15.7503 7.43609 16.0322 7.34747 16.2417 7.48442L17.9819 8.60426L19.7382 7.50054C19.9477 7.36358 20.2296 7.46025 20.3263 7.69389L21.0755 9.62742L23.146 9.76438C23.3958 9.7805 23.573 10.0222 23.5086 10.2639L22.9849 12.2699L24.5801 13.5912C24.7734 13.7523 24.7734 14.0504 24.5801 14.2115L22.9769 15.5247L23.4844 17.5307C23.5489 17.7724 23.3716 18.0141 23.1219 18.0302L21.0514 18.1511L20.286 20.0766C20.1893 20.3102 19.9074 20.3988 19.6979 20.2619L17.9577 19.142L16.2014 20.2458C15.992 20.3827 15.71 20.286 15.6133 20.0524L14.8641 18.1189L12.7936 17.9819C12.5438 17.9658 12.3666 17.7241 12.431 17.4824V17.4905ZM21.7845 28.3666L20.7694 29.1964L21.0917 30.4693C21.1561 30.711 20.9789 30.9527 20.7291 30.9688L19.4159 31.0413L18.9245 32.2659C18.8278 32.4995 18.5458 32.5881 18.3364 32.4512L17.2326 31.7422L16.1209 32.4431C15.9114 32.5801 15.6294 32.4834 15.5327 32.2498L15.0574 31.0252L13.7442 30.9366C13.4945 30.9205 13.3172 30.6788 13.3817 30.4371L13.7201 29.1642L12.713 28.3263C12.5197 28.1652 12.5197 27.8671 12.713 27.706L13.7281 26.8762L13.4059 25.6033C13.3414 25.3616 13.5186 25.1199 13.7684 25.1038L15.0816 25.0313L15.573 23.8067C15.6697 23.573 15.9517 23.4844 16.1611 23.6214L17.2649 24.3303L18.3767 23.6294C18.5861 23.4925 18.8681 23.5892 18.9648 23.8228L19.4401 25.0474L20.7533 25.136C21.003 25.1521 21.1803 25.3938 21.1158 25.6355L20.7775 26.9084L21.7845 27.7463C21.9779 27.9074 21.9779 28.2055 21.7845 28.3666ZM31.8631 26.0625C31.9275 26.3042 31.7503 26.5459 31.5005 26.562L29.7926 26.6586L29.1561 28.2538C29.0594 28.4874 28.7775 28.5761 28.568 28.4391L27.1259 27.5126L25.6757 28.423C25.4663 28.56 25.1843 28.4633 25.0876 28.2296L24.4673 26.6345L22.7593 26.5217C22.5096 26.5056 22.3323 26.2639 22.3968 26.0222L22.8318 24.3626L21.5186 23.2669C21.3253 23.1058 21.3253 22.8077 21.5186 22.6466L22.848 21.5589L22.429 19.8993C22.3646 19.6576 22.5418 19.4159 22.7916 19.3998L24.4995 19.3032L25.136 17.708C25.2326 17.4744 25.5146 17.3857 25.7241 17.5227L27.1662 18.4492L28.6163 17.5388C28.8258 17.4018 29.1078 17.4985 29.2044 17.7322L29.8248 19.3273L31.5327 19.4401C31.7825 19.4562 31.9597 19.6979 31.8953 19.9396L31.4602 21.5992L32.7734 22.6949C32.9668 22.856 32.9668 23.1541 32.7734 23.3152L31.4441 24.4029L31.8631 26.0625Z" fill="#201F24"/>
<path d="M19.851 38.4291C29.8667 38.4291 37.986 30.3098 37.986 20.2941C37.986 10.2785 29.8667 2.15918 19.851 2.15918C9.83535 2.15918 1.71606 10.2785 1.71606 20.2941C1.71606 30.3098 9.83535 38.4291 19.851 38.4291Z" stroke="#201F24" stroke-width="1.61128" stroke-miterlimit="10"/>
<path d="M50.6103 17.0957C50.6103 13.5429 50.6103 12.8903 50.5619 12.1411C50.5216 11.5207 50.4008 11.1662 49.9819 10.9487C49.716 10.8118 49.9174 10.3203 50.151 10.3284C51.0856 10.3848 51.5287 10.3848 51.9396 10.3848C53.0836 10.3848 53.9939 10.3123 54.7915 10.3123C59.0211 10.3123 59.7704 12.5761 59.7704 13.8168C59.7704 15.7342 58.6747 16.8782 57.3857 17.9094C59.3031 18.562 61.6395 20.2216 61.6395 22.9608C61.6395 25.4583 59.6979 28.0524 55.4038 28.0524C54.3323 28.0524 53.2528 27.9155 52.0121 27.9155C51.2064 27.9155 50.6747 27.9155 49.7966 27.8913C49.434 27.8833 49.4582 27.3676 49.6274 27.271C50.0785 27.0293 50.425 26.6667 50.4894 26.1834C50.6103 25.2005 50.6103 23.3556 50.6103 21.2045V17.0957ZM53.4139 17.4986C53.4139 17.6839 53.4864 17.7322 53.575 17.7564C53.7845 17.8047 54.139 17.8289 54.6707 17.8289C55.4441 17.8289 55.9597 17.7322 56.3545 17.3858C56.9587 16.8943 57.3132 16.0565 57.3132 14.9125C57.3132 13.3495 56.4028 11.2871 54.3887 11.2871C54.0584 11.2871 53.8489 11.2871 53.6153 11.3354C53.4542 11.3838 53.4058 11.4724 53.4058 11.7302V17.5066L53.4139 17.4986ZM53.4139 20.6728V24.4835C53.4139 26.0222 53.4864 26.425 54.2356 26.7231C54.864 26.9809 55.4038 27.0051 55.9436 27.0051C56.999 27.0051 58.7714 26.4412 58.7714 24.0162C58.7714 22.566 58.2799 20.6003 56.5075 19.3676C56.0161 19.0132 55.4763 18.852 54.566 18.8037C54.147 18.7795 53.9134 18.7795 53.5589 18.7795C53.4622 18.7795 53.4219 18.8279 53.4219 18.9407V20.6728H53.4139Z" fill="#201F24"/>
<path d="M63.6536 21.704C63.6536 18.8037 65.5871 15.2428 70.6707 15.2428C74.9245 15.2428 77.5186 17.8531 77.5186 21.3898C77.5186 25.1602 74.8681 28.1169 70.5176 28.1169C65.6677 28.1169 63.6536 24.6204 63.6536 21.696V21.704ZM75.005 22.0182C75.005 18.5218 72.9909 16.1209 70.1712 16.1209C68.2779 16.1209 66.151 17.0877 66.151 21.1481C66.151 24.5157 67.9879 27.2227 71.1944 27.2227C72.3706 27.2227 75.005 26.7393 75.005 22.0182Z" fill="#201F24"/>
<path d="M82.2719 22.5741C82.2719 24.9508 82.7392 25.9417 83.6093 26.5943C84.3424 27.1582 85.0997 27.2146 85.6395 27.2146C86.3565 27.2146 87.2427 27.0213 87.9033 26.3848C88.854 25.4986 88.8701 23.9679 88.8701 22.2841V20.2378C88.8701 17.7645 88.8298 17.3536 88.8137 16.838C88.7734 16.274 88.6768 16.0082 88.1209 15.9115C87.9195 15.8793 87.9275 15.4845 88.1048 15.4926C88.8298 15.5087 89.5388 15.5409 89.5871 15.5409C89.7724 15.5409 90.5136 15.5006 91.1581 15.4845C91.3031 15.4845 91.3434 15.847 91.134 15.9034C90.6909 15.984 90.57 16.2337 90.5378 16.8138C90.4975 17.3375 90.4814 17.7645 90.4814 20.2378V21.978C90.4814 23.8148 90.3042 25.7725 88.8379 26.9649C87.6617 27.9316 86.421 28.125 85.3011 28.125C84.2941 28.125 82.6747 28.0283 81.4743 26.981C80.6043 26.2478 79.9436 25.0474 79.9436 22.6466V20.2297C79.9436 17.7161 79.9436 17.3294 79.9033 16.7896C79.8631 16.266 79.7503 16.0162 79.2266 15.9034C79.0735 15.8631 79.0171 15.4845 79.2266 15.4845C79.9759 15.5006 80.7734 15.5328 81.1199 15.5328C81.426 15.5328 82.3364 15.4926 82.9809 15.4764C83.1178 15.4764 83.1259 15.8551 82.9326 15.8954C82.4653 15.9759 82.3364 16.266 82.3122 16.8219C82.2719 17.3455 82.2719 17.8289 82.2719 20.2217V22.558V22.5741Z" fill="#201F24"/>
<path d="M99.2306 23.1381C99.2306 24.6043 99.2306 25.9014 99.3112 26.6184C99.3676 27.0615 99.4643 27.4321 99.9879 27.4885C100.222 27.5288 100.262 27.9074 100.02 27.9074C99.1581 27.8913 98.3686 27.8591 98.0383 27.8591C97.7402 27.8591 96.9587 27.8913 96.3223 27.9074C96.137 27.9074 96.1853 27.5449 96.3384 27.5127C96.709 27.4321 96.8056 27.0857 96.862 26.6023C96.9426 25.9095 96.9426 24.6688 96.9426 23.1381V16.4513C96.3061 16.4513 95.0252 16.4513 94.2518 16.5077C93.2689 16.5882 92.9789 16.6607 92.7452 17.0877C92.713 17.1441 92.6405 17.2569 92.6002 17.3616C92.5599 17.4744 92.1893 17.5066 92.1893 17.3133C92.1893 17.2327 92.2296 17.1119 92.2538 16.9427C92.3505 16.4029 92.5035 15.7665 92.5277 15.6053C92.568 15.3717 92.6244 15.2589 92.721 15.2589C92.858 15.2589 93.0111 15.412 93.4381 15.4523C93.9053 15.5087 94.5982 15.5489 95.1783 15.5489H102.026C102.566 15.5489 102.937 15.4925 103.186 15.4523C103.436 15.412 103.573 15.3717 103.67 15.3717C103.782 15.3717 103.807 15.4684 103.807 15.7584C103.807 16.0323 103.75 16.8863 103.734 17.418C103.734 17.5308 103.38 17.5953 103.364 17.4422C103.323 16.9991 102.92 16.556 101.486 16.5318C101.019 16.4915 100.31 16.4754 99.2467 16.4513V23.1381H99.2306Z" fill="#201F24"/>
<path d="M106.014 20.2378C106.014 17.7242 106.014 17.3375 105.974 16.7977C105.933 16.2579 105.764 15.984 105.394 15.9115C105.216 15.8712 105.233 15.4926 105.41 15.4926C106.062 15.5087 106.844 15.5409 107.174 15.5409C107.504 15.5409 108.342 15.5006 108.995 15.4845C109.124 15.4845 109.172 15.847 108.979 15.8873C108.512 15.9679 108.383 16.2579 108.342 16.8138C108.286 17.3375 108.286 17.7242 108.286 20.2378V23.1381C108.286 24.6849 108.302 25.9417 108.383 26.6345C108.423 27.0777 108.56 27.4241 109.059 27.4885C109.309 27.5449 109.301 27.9155 109.084 27.9075C108.205 27.8913 107.432 27.8591 107.102 27.8591C106.836 27.8591 106.038 27.8994 105.386 27.9075C105.225 27.9075 105.249 27.5449 105.402 27.5046C105.732 27.4241 105.885 27.134 105.925 26.6748C106.022 25.982 106.022 24.7413 106.022 23.1381V20.2378H106.014Z" fill="#201F24"/>
<path d="M117.793 28.125C112.806 28.125 110.848 24.564 110.848 21.6073C110.848 18.8601 112.878 15.2428 117.865 15.2428C122.006 15.2428 124.785 17.7161 124.785 21.4543C124.785 24.274 123.045 26.0545 121.901 26.8279L125.245 28.5117C128.822 30.268 131.045 30.4855 132.262 30.4855C133.188 30.4855 134.389 30.3727 135.492 29.9215C135.605 29.8813 135.702 29.841 135.766 29.841C135.863 29.841 135.944 29.8974 135.944 29.9941C135.944 30.0907 135.847 30.1874 135.734 30.2438C134.671 30.7836 132.657 31.5409 130.127 31.5409C127.597 31.5409 125.76 30.8803 122.973 29.3012L120.282 27.7544C119.621 27.988 118.655 28.125 117.784 28.125H117.793ZM122.199 21.9618C122.199 18.1914 119.919 16.1209 117.446 16.1209C115.335 16.1209 113.402 17.3777 113.402 21.1884C113.402 24.9991 115.666 27.2227 118.413 27.2227C119.726 27.2227 122.199 26.7232 122.199 21.9618Z" fill="#201F24"/>
<path d="M129.587 22.5741C129.587 24.9508 130.054 25.9417 130.924 26.5943C131.658 27.1582 132.415 27.2146 132.955 27.2146C133.672 27.2146 134.558 27.0213 135.219 26.3848C136.169 25.4986 136.185 23.9679 136.185 22.2841V20.2378C136.185 17.7645 136.145 17.3536 136.129 16.838C136.089 16.274 135.992 16.0082 135.436 15.9115C135.299 15.8712 135.243 15.4845 135.428 15.4926C136.153 15.5087 136.862 15.5409 136.91 15.5409C137.096 15.5409 137.829 15.5006 138.465 15.4926C138.618 15.4926 138.667 15.8551 138.457 15.9115C138.014 15.9921 137.893 16.2418 137.861 16.8219C137.821 17.3455 137.805 17.7725 137.805 20.2458V21.986C137.805 23.8229 137.627 25.7806 136.161 26.9729C134.985 27.9397 133.744 28.133 132.624 28.133C131.617 28.133 129.998 28.0364 128.798 26.989C127.928 26.2559 127.267 25.0555 127.267 22.6547V20.2378C127.267 17.7242 127.267 17.3375 127.227 16.7977C127.186 16.274 127.074 16.0243 126.55 15.9115C126.397 15.8712 126.348 15.4926 126.566 15.4926C127.307 15.5087 128.097 15.5409 128.443 15.5409C128.741 15.5409 129.619 15.5006 130.256 15.4926C130.409 15.4926 130.449 15.8712 130.256 15.9115C129.789 15.9921 129.66 16.2821 129.635 16.838C129.595 17.3616 129.595 17.845 129.595 20.2378V22.5741H129.587Z" fill="#201F24"/>
<path d="M141.261 20.2375C141.261 17.7239 141.261 17.2808 141.22 16.741C141.18 16.2013 141.043 15.9837 140.528 15.871C140.375 15.8307 140.366 15.4842 140.568 15.4923C141.164 15.5084 141.76 15.5406 142.405 15.5406C142.928 15.5406 146.465 15.5406 146.771 15.5245C147.102 15.4842 147.392 15.444 147.545 15.4279C147.641 15.4117 147.738 15.3473 147.819 15.3473C147.915 15.3473 147.931 15.4279 147.931 15.5004C147.931 15.6132 147.819 15.8468 147.778 16.5477C147.77 16.7088 147.754 16.878 147.746 17.0794C147.738 17.2567 147.335 17.3211 147.239 17.1116C147.126 16.8055 146.965 16.6283 146.135 16.5316C145.805 16.4913 144.064 16.451 143.678 16.451C143.597 16.451 143.565 16.5074 143.565 16.6283V20.6323C143.565 20.7451 143.581 20.8095 143.678 20.8095C144.08 20.8095 145.942 20.8095 146.369 20.7934C146.852 20.7531 147.102 20.6967 147.255 20.5195C147.367 20.3664 147.641 20.3423 147.641 20.4389C147.641 20.5517 147.561 20.9223 147.504 21.7118C147.504 21.8971 147.488 22.1872 147.472 22.4369C147.456 22.6383 147.077 22.6625 147.045 22.4691C146.949 22.0985 146.755 21.8488 146.078 21.7924C145.732 21.7521 144.105 21.736 143.678 21.736C143.581 21.736 143.565 21.8166 143.565 21.9133V23.17C143.565 23.734 143.549 25.0875 143.565 25.587C143.605 26.731 143.855 26.9807 145.635 26.9807C146.078 26.9807 146.796 26.9807 147.222 26.7874C147.601 26.6021 147.786 26.3362 147.931 25.8206C147.98 25.6595 148.334 25.7078 148.334 25.8528C148.334 26.3765 148.189 27.2627 148.109 27.5366C147.996 27.9636 147.835 27.9636 147.198 27.9636C145.515 27.9636 144.064 27.9475 142.348 27.8669C141.132 27.8105 141.132 27.0774 141.188 26.4973C141.269 25.8206 141.269 24.5638 141.269 23.1539V20.2536L141.261 20.2375Z" fill="#201F24"/>
<path d="M158.195 20.2378C158.195 17.7645 158.195 17.3375 158.155 16.8138C158.115 16.274 158.002 16.0001 157.535 15.8793C157.341 15.8309 157.494 15.5167 157.583 15.5167C158.276 15.5167 158.872 15.5328 159.339 15.5328C159.903 15.5328 160.886 15.4764 162.006 15.4764C164.286 15.4764 166.92 15.557 168.733 17.3697C169.587 18.1995 170.377 19.5771 170.377 21.551C170.377 23.5248 169.466 25.1683 168.524 26.1109C167.734 26.8843 166.066 28.0444 162.876 28.0444C161.635 28.0444 160.105 27.9719 159.283 27.8511C157.857 27.6335 158.203 25.7242 158.203 23.13V20.2297L158.195 20.2378ZM160.475 22.0585C160.475 23.7987 160.491 25.0152 160.516 25.3294C160.54 25.7967 160.556 26.2962 160.725 26.5701C160.918 26.8762 161.635 27.2066 162.868 27.2066C164.495 27.2066 165.559 26.9004 166.558 26.0303C167.621 25.1441 167.927 23.694 167.927 22.0102C167.927 20.0364 167.082 18.7393 166.34 18.0061C164.874 16.5721 163.029 16.3465 161.756 16.3465C161.41 16.3465 160.79 16.4029 160.677 16.4996C160.499 16.6366 160.467 16.6768 160.467 20.0364V22.0666L160.475 22.0585Z" fill="#201F24"/>
<path d="M171.746 21.704C171.746 18.8037 173.68 15.2428 178.763 15.2428C183.017 15.2428 185.611 17.8531 185.611 21.3898C185.611 25.1602 182.961 28.1169 178.61 28.1169C173.752 28.1169 171.746 24.6204 171.746 21.696V21.704ZM183.098 22.0182C183.098 18.5218 181.084 16.1209 178.264 16.1209C176.371 16.1209 174.244 17.0877 174.244 21.1481C174.244 24.5157 176.081 27.2227 179.295 27.2227C180.471 27.2227 183.106 26.7393 183.106 22.0182H183.098Z" fill="#201F24"/>
<path d="M187.239 27.698C186.965 27.5852 186.908 27.4643 186.908 27.134C186.908 26.1512 186.965 25.1844 186.989 24.8944C187.005 24.6204 187.376 24.6043 187.392 24.7413C187.408 24.9508 187.408 25.2408 187.505 25.5147C187.851 26.7715 188.914 27.2952 190.018 27.2952C191.565 27.2952 192.258 26.3445 192.258 25.4986C192.258 24.7252 192.024 23.992 190.598 22.9447L189.784 22.3244C187.867 20.8742 187.255 19.7705 187.255 18.417C187.255 16.5963 188.818 15.2428 191.235 15.2428C192.008 15.2428 192.475 15.3395 192.959 15.42C193.233 15.4603 193.458 15.5167 193.652 15.5328C193.805 15.5489 193.845 15.6295 193.845 15.7423C193.845 16.0162 193.764 16.4754 193.764 17.7886C193.764 18.1592 193.394 18.1753 193.378 17.9659C193.361 17.7564 193.241 17.2891 192.991 16.9185C192.701 16.4754 192.161 16.0484 191.057 16.0484C189.784 16.0484 189.043 16.7413 189.043 17.6919C189.043 18.409 189.39 19.0454 190.783 19.9961L191.323 20.3667C193.49 21.8329 194.183 22.9769 194.183 24.5399C194.183 25.5469 193.756 26.6829 192.524 27.4563C191.654 27.98 190.671 28.1169 189.776 28.1169C188.729 28.1169 187.956 28.0041 187.223 27.6899L187.239 27.698Z" fill="#201F24"/>
<path d="M201.781 16.6607C201.781 13.1078 201.78 12.4552 201.732 11.706C201.684 10.9084 201.998 9.96582 203.134 9.9497C203.932 9.94165 205.704 9.8772 206.429 9.8772C207.903 9.8772 209.466 10.0142 210.731 10.8842C211.384 11.3273 212.318 12.5197 212.318 14.0826C212.318 15.8148 211.617 17.3777 209.257 19.2951C211.335 21.9135 212.947 24.0162 214.324 25.4663C215.629 26.8198 216.572 26.989 216.918 27.0534C217.176 27.1018 217.063 27.5449 216.935 27.5449H215.122C213.817 27.5449 213.229 27.4321 212.624 27.1018C211.617 26.562 210.731 25.4663 209.426 23.6697C208.491 22.3807 207.42 20.7936 207.114 20.4472C206.993 20.3102 206.856 20.2861 206.695 20.2861L204.729 20.2377C204.616 20.2377 204.544 20.2861 204.544 20.423V20.7533C204.544 22.9286 204.544 24.7735 204.657 25.7563C204.729 26.4331 204.737 26.8198 205.414 27.0293C205.575 27.0776 205.511 27.5529 205.341 27.5529C204.238 27.5368 203.392 27.4885 203.094 27.4885C202.651 27.4885 201.99 27.5126 201.055 27.5126C200.669 27.5126 200.685 27.1421 200.959 27.0937C201.402 27.0131 201.571 26.4411 201.668 25.7644C201.789 24.7815 201.789 22.9366 201.789 20.7856V16.6768L201.781 16.6607ZM204.536 18.5056C204.536 18.7634 204.584 18.8601 204.745 18.9245C205.237 19.0857 205.938 19.1582 206.518 19.1582C207.452 19.1582 207.758 19.0615 208.177 18.7634C208.878 18.2478 209.555 17.1763 209.555 15.2589C209.555 11.9396 207.356 10.9809 205.978 10.9809C205.398 10.9809 204.971 11.0051 204.737 11.0776C204.576 11.1259 204.528 11.2146 204.528 11.4079V18.5137L204.536 18.5056Z" fill="#201F24"/>
<path d="M218.199 19.8591C218.199 17.3455 218.199 16.9024 218.159 16.3626C218.119 15.8228 217.982 15.6053 217.466 15.4925C217.313 15.4523 217.289 15.1058 217.482 15.1139C218.095 15.13 218.691 15.1622 219.343 15.1622C219.867 15.1622 223.404 15.1622 223.71 15.1461C224.04 15.1058 224.33 15.0655 224.483 15.0494C224.58 15.0333 224.677 14.9689 224.757 14.9689C224.854 14.9689 224.87 15.0494 224.87 15.1219C224.87 15.2347 224.757 15.4684 224.717 16.1693C224.709 16.3385 224.693 16.5157 224.685 16.7171C224.677 16.8863 224.274 16.9427 224.177 16.7332C224.064 16.4271 223.903 16.2498 223.073 16.1532C222.743 16.1129 221.003 16.0726 220.616 16.0726C220.536 16.0726 220.503 16.129 220.503 16.2498V20.2539C220.503 20.3667 220.52 20.4311 220.616 20.4311C221.019 20.4311 222.88 20.4311 223.307 20.415C223.79 20.3747 224.04 20.3183 224.193 20.1411C224.306 19.988 224.58 19.9638 224.58 20.0605C224.58 20.1733 224.499 20.5439 224.443 21.3334C224.443 21.5268 224.427 21.8329 224.411 22.0907C224.403 22.276 224.024 22.276 223.984 22.0907C223.887 21.7201 223.694 21.4704 223.017 21.414C222.671 21.3737 221.043 21.3576 220.616 21.3576C220.52 21.3576 220.503 21.4382 220.503 21.5348V22.7916C220.503 23.3556 220.487 24.7091 220.503 25.2086C220.544 26.3526 220.794 26.6023 222.574 26.6023C223.017 26.6023 223.734 26.6023 224.161 26.409C224.532 26.2317 224.725 25.9739 224.862 25.4905C224.886 25.3938 225.281 25.4261 225.273 25.555C225.233 26.0867 225.136 26.9004 225.055 27.1582C224.943 27.5852 224.781 27.5852 224.145 27.5852C222.461 27.5852 221.011 27.4885 219.295 27.4885C218.602 27.4885 218.079 26.699 218.135 26.1189C218.215 25.4422 218.215 24.1854 218.215 22.7755V19.8752L218.199 19.8591Z" fill="#201F24"/>
<path d="M230.026 22.7594C230.026 24.7896 230.026 25.9336 230.373 26.2237C230.647 26.4976 231.065 26.6104 232.419 26.6104C233.305 26.6104 233.966 26.5943 234.409 26.1834C234.586 26.0223 234.747 25.7322 234.844 25.4261C234.876 25.3213 235.255 25.3133 235.239 25.4744C235.19 25.9578 235.078 26.7796 234.973 27.134C234.86 27.5207 234.779 27.5771 233.925 27.5771C232.201 27.5771 230.638 27.4805 228.818 27.4805C228.125 27.4805 227.601 26.7232 227.658 26.0867C227.738 25.41 227.738 24.1693 227.738 22.7594V19.8591C227.738 17.3455 227.738 16.9588 227.698 16.4351C227.658 15.8954 227.521 15.6456 227.005 15.5248C226.868 15.4845 226.812 15.0978 226.965 15.1058C227.682 15.1219 228.463 15.1622 228.882 15.1622C229.164 15.1622 230.075 15.13 230.767 15.1139C230.969 15.1139 230.912 15.4764 230.703 15.5328C230.236 15.6134 230.107 15.8793 230.066 16.4593C230.026 16.983 230.026 17.3455 230.026 19.8994V22.7594Z" fill="#201F24"/>
<path d="M235.48 21.3254C235.48 18.4251 237.414 14.8641 242.497 14.8641C246.751 14.8641 249.345 17.4744 249.345 21.0112C249.345 24.7816 246.695 27.7383 242.344 27.7383C237.494 27.7383 235.48 24.2418 235.48 21.3173V21.3254ZM246.832 21.6396C246.832 18.1431 244.818 15.7423 241.998 15.7423C240.105 15.7423 237.978 16.709 237.978 20.7695C237.978 24.137 239.815 26.844 243.021 26.844C244.197 26.844 246.832 26.3606 246.832 21.6396ZM245.285 11.8913C245.382 12.1008 245.301 12.1814 245.204 12.1814C245.108 12.1814 244.665 12.2619 244.334 12.3908C243.327 12.7775 242.747 13.3254 242.151 13.6476C242.038 13.7121 241.853 13.8087 241.78 13.8087C241.676 13.8087 241.249 13.704 241.249 13.6073C241.249 13.5268 241.329 13.4543 241.402 13.3334C241.982 12.6567 243.239 11.4402 243.722 11.0937C243.972 10.9004 244.165 10.8037 244.246 10.8037C244.342 10.8037 244.455 10.8601 244.632 10.9971C244.826 11.2065 245.059 11.4643 245.293 11.8833L245.285 11.8913Z" fill="#201F24"/>
<path d="M263.001 26.3364C263.001 26.8762 262.961 26.9165 262.751 27.0293C261.688 27.553 260.004 27.7463 258.651 27.7463C254.356 27.7463 250.723 25.8128 250.723 21.3093C250.723 18.6587 252.157 16.846 253.704 15.9356C255.364 14.985 256.951 14.8722 258.344 14.8722C259.505 14.8722 260.898 15.0494 261.325 15.1461C261.712 15.2025 262.308 15.2992 262.719 15.3234C262.912 15.3395 262.928 15.4361 262.928 15.557C262.928 15.7423 262.808 16.1854 262.792 18.0222C262.792 18.1189 262.381 18.1834 262.348 18.0464C262.284 17.7725 262.171 17.4744 261.897 17.1763C261.43 16.5399 260.06 15.7665 258.07 15.7665C257.063 15.7665 255.847 15.8792 254.743 16.8299C253.833 17.6033 253.277 18.7795 253.277 20.7372C253.277 24.137 255.444 26.844 259.037 26.844C259.44 26.844 260.004 26.844 260.375 26.6506C260.624 26.554 260.681 26.3445 260.681 26.0706V24.6768C260.681 23.8873 260.681 23.3072 260.665 22.7836C260.648 22.1471 260.487 21.8329 259.907 21.7604C259.754 21.7443 259.722 21.3737 259.915 21.3818C260.689 21.3898 261.478 21.414 261.897 21.414C262.34 21.414 263.049 21.3898 263.637 21.3818C263.766 21.3818 263.863 21.7282 263.654 21.7443C263.17 21.8007 263.033 22.1149 263.017 22.6708C263.001 23.1944 263.001 23.8309 263.001 24.6607V26.3445V26.3364Z" fill="#201F24"/>
<path d="M266.457 19.8591C266.457 17.3455 266.457 16.9588 266.417 16.419C266.377 15.8792 266.207 15.6053 265.837 15.5328C265.66 15.4925 265.676 15.1139 265.853 15.1139C266.505 15.13 267.287 15.1622 267.617 15.1622C267.931 15.1622 268.737 15.1219 269.382 15.1139C269.535 15.1139 269.607 15.4764 269.414 15.5167C268.947 15.5973 268.818 15.8873 268.777 16.4432C268.721 16.9669 268.721 17.3536 268.721 19.8672V22.7675C268.721 24.3143 268.737 25.5711 268.818 26.2639C268.858 26.707 268.995 27.0535 269.494 27.1179C269.744 27.1743 269.728 27.5449 269.511 27.5369C268.632 27.5207 267.867 27.4885 267.545 27.4885C267.279 27.4885 266.489 27.5288 265.829 27.5369C265.668 27.5369 265.684 27.1743 265.837 27.134C266.167 27.0535 266.32 26.7634 266.36 26.3042C266.457 25.6114 266.457 24.3707 266.457 22.7675V19.8672V19.8591Z" fill="#201F24"/>
<path d="M271.291 21.3254C271.291 18.4251 273.225 14.8641 278.308 14.8641C282.562 14.8641 285.156 17.4744 285.156 21.0112C285.156 24.7816 282.506 27.7383 278.155 27.7383C273.305 27.7383 271.291 24.2418 271.291 21.3173V21.3254ZM282.642 21.6396C282.642 18.1431 280.628 15.7423 277.809 15.7423C275.915 15.7423 273.789 16.7091 273.789 20.7695C273.789 24.137 275.625 26.844 278.832 26.844C280.008 26.844 282.642 26.3606 282.642 21.6396Z" fill="#201F24"/>
<path d="M286.775 27.3274C286.501 27.2146 286.445 27.0937 286.445 26.7634C286.445 25.7806 286.501 24.8138 286.526 24.5238C286.542 24.2498 286.912 24.2337 286.928 24.3707C286.945 24.5801 286.945 24.8702 287.041 25.1441C287.388 26.4009 288.451 26.9246 289.555 26.9246C291.102 26.9246 291.795 25.9739 291.795 25.128C291.795 24.3546 291.561 23.6214 290.135 22.5741L289.321 21.9538C287.404 20.5036 286.792 19.3999 286.792 18.0464C286.792 16.2257 288.354 14.8722 290.771 14.8722C291.545 14.8722 292.012 14.9689 292.495 15.0494C292.769 15.0897 292.995 15.1461 293.188 15.1622C293.341 15.1783 293.382 15.2589 293.382 15.3717C293.382 15.6456 293.301 16.1048 293.301 17.418C293.301 17.7886 292.93 17.8047 292.914 17.5953C292.898 17.3858 292.777 16.9185 292.528 16.5479C292.238 16.1048 291.698 15.6778 290.594 15.6778C289.321 15.6778 288.58 16.3707 288.58 17.3213C288.58 18.0384 288.926 18.6748 290.32 19.6255L290.86 19.9961C293.027 21.4623 293.72 22.6063 293.72 24.1693C293.72 25.1763 293.293 26.3123 292.06 27.0857C291.19 27.6094 290.207 27.7463 289.313 27.7463C288.266 27.7463 287.492 27.6335 286.759 27.3193L286.775 27.3274Z" fill="#201F24"/>
</svg>
