<svg width="295" height="40" viewBox="0 0 295 40" fill="none" xmlns="http://www.w3.org/2000/svg">
<path d="M19.7544 5.08374C11.3919 5.08374 4.60034 11.8672 4.60034 20.2378C4.60034 28.6084 11.3838 35.3919 19.7544 35.3919C28.125 35.3919 34.9085 28.6084 34.9085 20.2378C34.9085 11.8672 28.125 5.08374 19.7544 5.08374ZM12.4312 17.4906L12.9548 15.4845L11.3597 14.1552C11.1663 13.9941 11.1663 13.696 11.3597 13.5349L12.9629 12.2217L12.4553 10.2157C12.3909 9.97397 12.5681 9.73228 12.8179 9.71617L14.8884 9.59532L15.6537 7.66984C15.7504 7.43621 16.0324 7.34759 16.2418 7.48455L17.982 8.60438L19.7383 7.50066C19.9478 7.3637 20.2297 7.46038 20.3264 7.69401L21.0757 9.62755L23.1462 9.76451C23.3959 9.78062 23.5732 10.0223 23.5087 10.264L22.985 12.27L24.5802 13.5913C24.7736 13.7524 24.7736 14.0505 24.5802 14.2116L22.977 15.5248L23.4845 17.5309C23.549 17.7726 23.3717 18.0143 23.122 18.0304L21.0515 18.1512L20.2861 20.0767C20.1895 20.3103 19.9075 20.3989 19.698 20.262L17.9578 19.1421L16.2016 20.2459C15.9921 20.3828 15.7101 20.2862 15.6134 20.0525L14.8642 18.119L12.7937 17.982C12.5439 17.9659 12.3667 17.7242 12.4312 17.4825V17.4906ZM21.7846 28.3667L20.7695 29.1965L21.0918 30.4694C21.1562 30.7111 20.979 30.9528 20.7292 30.9689L19.4161 31.0414L18.9246 32.266C18.8279 32.4996 18.546 32.5883 18.3365 32.4513L17.2328 31.7423L16.121 32.4433C15.9115 32.5802 15.6295 32.4835 15.5329 32.2499L15.0575 31.0253L13.7443 30.9367C13.4946 30.9206 13.3174 30.6789 13.3818 30.4372L13.7202 29.1643L12.7131 28.3264C12.5198 28.1653 12.5198 27.8672 12.7131 27.7061L13.7282 26.8763L13.406 25.6034C13.3415 25.3617 13.5188 25.12 13.7685 25.1039L15.0817 25.0314L15.5732 23.8068C15.6698 23.5732 15.9518 23.4845 16.1613 23.6215L17.265 24.3305L18.3768 23.6296C18.5862 23.4926 18.8682 23.5893 18.9649 23.8229L19.4402 25.0475L20.7534 25.1361C21.0032 25.1522 21.1804 25.3939 21.1159 25.6356L20.7776 26.9085L21.7846 27.7464C21.978 27.9075 21.978 28.2056 21.7846 28.3667ZM31.8632 26.0626C31.9276 26.3043 31.7504 26.546 31.5006 26.5621L29.7927 26.6588L29.1562 28.2539C29.0596 28.4876 28.7776 28.5762 28.5681 28.4392L27.126 27.5127L25.6759 28.4231C25.4664 28.5601 25.1844 28.4634 25.0878 28.2298L24.4674 26.6346L22.7595 26.5218C22.5097 26.5057 22.3325 26.264 22.3969 26.0223L22.832 24.3627L21.5188 23.267C21.3254 23.1059 21.3254 22.8078 21.5188 22.6467L22.8481 21.5591L22.4291 19.8995C22.3647 19.6578 22.5419 19.4161 22.7917 19.4L24.4996 19.3033L25.1361 17.7081C25.2328 17.4745 25.5147 17.3859 25.7242 17.5228L27.1663 18.4493L28.6165 17.5389C28.8259 17.402 29.1079 17.4986 29.2046 17.7323L29.8249 19.3274L31.5329 19.4402C31.7826 19.4563 31.9599 19.698 31.8954 19.9397L31.4604 21.5993L32.7736 22.695C32.9669 22.8561 32.9669 23.1542 32.7736 23.3154L31.4442 24.403L31.8632 26.0626Z" fill="#201F24"/>
<path d="M19.851 38.4291C29.8667 38.4291 37.986 30.3098 37.986 20.2941C37.986 10.2785 29.8667 2.15918 19.851 2.15918C9.83535 2.15918 1.71606 10.2785 1.71606 20.2941C1.71606 30.3098 9.83535 38.4291 19.851 38.4291Z" stroke="#201F24" stroke-width="1.61128" stroke-miterlimit="10"/>
<path d="M50.6103 17.0957C50.6103 13.5429 50.6103 12.8903 50.5619 12.1411C50.5216 11.5207 50.4008 11.1662 49.9819 10.9487C49.716 10.8118 49.9174 10.3203 50.151 10.3284C51.0856 10.3848 51.5287 10.3848 51.9396 10.3848C53.0836 10.3848 53.9939 10.3123 54.7915 10.3123C59.0211 10.3123 59.7704 12.5761 59.7704 13.8168C59.7704 15.7342 58.6747 16.8782 57.3857 17.9094C59.3031 18.562 61.6395 20.2216 61.6395 22.9608C61.6395 25.4583 59.6979 28.0524 55.4038 28.0524C54.3323 28.0524 53.2528 27.9155 52.0121 27.9155C51.2064 27.9155 50.6747 27.9155 49.7966 27.8913C49.434 27.8833 49.4582 27.3676 49.6274 27.271C50.0785 27.0293 50.425 26.6667 50.4894 26.1834C50.6103 25.2005 50.6103 23.3556 50.6103 21.2045V17.0957ZM53.4139 17.4986C53.4139 17.6839 53.4864 17.7322 53.575 17.7564C53.7845 17.8047 54.139 17.8289 54.6707 17.8289C55.4441 17.8289 55.9597 17.7322 56.3545 17.3858C56.9587 16.8943 57.3132 16.0565 57.3132 14.9125C57.3132 13.3495 56.4028 11.2871 54.3887 11.2871C54.0584 11.2871 53.8489 11.2871 53.6153 11.3354C53.4542 11.3838 53.4058 11.4724 53.4058 11.7302V17.5066L53.4139 17.4986ZM53.4139 20.6728V24.4835C53.4139 26.0222 53.4864 26.425 54.2356 26.7231C54.864 26.9809 55.4038 27.0051 55.9436 27.0051C56.999 27.0051 58.7714 26.4412 58.7714 24.0162C58.7714 22.566 58.2799 20.6003 56.5075 19.3676C56.0161 19.0132 55.4763 18.852 54.566 18.8037C54.147 18.7795 53.9134 18.7795 53.5589 18.7795C53.4622 18.7795 53.4219 18.8279 53.4219 18.9407V20.6728H53.4139Z" fill="#201F24"/>
<path d="M63.6536 21.7039C63.6536 18.8036 65.5871 15.2427 70.6707 15.2427C74.9245 15.2427 77.5186 17.8529 77.5186 21.3897C77.5186 25.1601 74.8681 28.1168 70.5176 28.1168C65.6677 28.1168 63.6536 24.6203 63.6536 21.6958V21.7039ZM75.005 22.0181C75.005 18.5216 72.9909 16.1208 70.1712 16.1208C68.2779 16.1208 66.151 17.0876 66.151 21.148C66.151 24.5156 67.9879 27.2225 71.1944 27.2225C72.3706 27.2225 75.005 26.7392 75.005 22.0181Z" fill="#201F24"/>
<path d="M82.2719 22.574C82.2719 24.9506 82.7392 25.9416 83.6093 26.5941C84.3424 27.1581 85.0997 27.2145 85.6395 27.2145C86.3565 27.2145 87.2427 27.0211 87.9033 26.3847C88.854 25.4985 88.8701 23.9678 88.8701 22.284V20.2376C88.8701 17.7643 88.8298 17.3535 88.8137 16.8378C88.7734 16.2739 88.6768 16.008 88.1209 15.9114C87.9195 15.8791 87.9275 15.4844 88.1048 15.4924C88.8298 15.5085 89.5388 15.5408 89.5871 15.5408C89.7724 15.5408 90.5136 15.5005 91.1581 15.4844C91.3031 15.4844 91.3434 15.8469 91.134 15.9033C90.6909 15.9839 90.57 16.2336 90.5378 16.8137C90.4975 17.3373 90.4814 17.7643 90.4814 20.2376V21.9778C90.4814 23.8147 90.3042 25.7724 88.8379 26.9647C87.6617 27.9315 86.421 28.1249 85.3011 28.1249C84.2941 28.1249 82.6747 28.0282 81.4743 26.9809C80.6043 26.2477 79.9436 25.0473 79.9436 22.6465V20.2296C79.9436 17.716 79.9436 17.3293 79.9033 16.7895C79.8631 16.2658 79.7503 16.0161 79.2266 15.9033C79.0735 15.863 79.0171 15.4844 79.2266 15.4844C79.9759 15.5005 80.7734 15.5327 81.1199 15.5327C81.426 15.5327 82.3364 15.4924 82.9809 15.4763C83.1178 15.4763 83.1259 15.855 82.9326 15.8953C82.4653 15.9758 82.3364 16.2658 82.3122 16.8217C82.2719 17.3454 82.2719 17.8288 82.2719 20.2215V22.5579V22.574Z" fill="#201F24"/>
<path d="M99.2306 23.1379C99.2306 24.6042 99.2306 25.9013 99.3112 26.6183C99.3676 27.0614 99.4643 27.432 99.9879 27.4884C100.222 27.5287 100.262 27.9073 100.02 27.9073C99.1581 27.8912 98.3686 27.859 98.0383 27.859C97.7402 27.859 96.9587 27.8912 96.3223 27.9073C96.137 27.9073 96.1853 27.5448 96.3384 27.5126C96.709 27.432 96.8056 27.0856 96.862 26.6022C96.9426 25.9093 96.9426 24.6687 96.9426 23.1379V16.4511C96.3061 16.4511 95.0252 16.4511 94.2518 16.5075C93.2689 16.5881 92.9789 16.6606 92.7452 17.0876C92.713 17.144 92.6405 17.2568 92.6002 17.3615C92.5599 17.4743 92.1893 17.5065 92.1893 17.3132C92.1893 17.2326 92.2296 17.1118 92.2538 16.9426C92.3505 16.4028 92.5035 15.7663 92.5277 15.6052C92.568 15.3716 92.6244 15.2588 92.721 15.2588C92.858 15.2588 93.0111 15.4119 93.4381 15.4521C93.9053 15.5085 94.5982 15.5488 95.1783 15.5488H102.026C102.566 15.5488 102.937 15.4924 103.186 15.4521C103.436 15.4119 103.573 15.3716 103.67 15.3716C103.782 15.3716 103.807 15.4683 103.807 15.7583C103.807 16.0322 103.75 16.8862 103.734 17.4179C103.734 17.5307 103.38 17.5951 103.364 17.4421C103.323 16.999 102.92 16.5559 101.486 16.5317C101.019 16.4914 100.31 16.4753 99.2467 16.4511V23.1379H99.2306Z" fill="#201F24"/>
<path d="M106.014 20.2376C106.014 17.7241 106.014 17.3373 105.974 16.7976C105.933 16.2578 105.764 15.9839 105.394 15.9114C105.216 15.8711 105.233 15.4924 105.41 15.4924C106.062 15.5085 106.844 15.5408 107.174 15.5408C107.504 15.5408 108.342 15.5005 108.995 15.4844C109.124 15.4844 109.172 15.8469 108.979 15.8872C108.512 15.9678 108.383 16.2578 108.342 16.8137C108.286 17.3373 108.286 17.7241 108.286 20.2376V23.1379C108.286 24.6848 108.302 25.9416 108.383 26.6344C108.423 27.0775 108.56 27.424 109.059 27.4884C109.309 27.5448 109.301 27.9154 109.084 27.9073C108.205 27.8912 107.432 27.859 107.102 27.859C106.836 27.859 106.038 27.8993 105.386 27.9073C105.225 27.9073 105.249 27.5448 105.402 27.5045C105.732 27.424 105.885 27.1339 105.925 26.6747C106.022 25.9819 106.022 24.7412 106.022 23.1379V20.2376H106.014Z" fill="#201F24"/>
<path d="M117.793 28.1249C112.806 28.1249 110.848 24.5639 110.848 21.6072C110.848 18.86 112.878 15.2427 117.865 15.2427C122.006 15.2427 124.785 17.716 124.785 21.4542C124.785 24.2739 123.045 26.0544 121.901 26.8278L125.245 28.5116C128.822 30.2679 131.045 30.4854 132.262 30.4854C133.188 30.4854 134.389 30.3726 135.492 29.9214C135.605 29.8811 135.702 29.8409 135.766 29.8409C135.863 29.8409 135.944 29.8973 135.944 29.9939C135.944 30.0906 135.847 30.1873 135.734 30.2437C134.671 30.7835 132.657 31.5408 130.127 31.5408C127.597 31.5408 125.76 30.8801 122.973 29.3011L120.282 27.7543C119.621 27.9879 118.655 28.1249 117.784 28.1249H117.793ZM122.199 21.9617C122.199 18.1913 119.919 16.1208 117.446 16.1208C115.335 16.1208 113.402 17.3776 113.402 21.1883C113.402 24.999 115.666 27.2225 118.413 27.2225C119.726 27.2225 122.199 26.723 122.199 21.9617Z" fill="#201F24"/>
<path d="M129.587 22.5739C129.587 24.9505 130.054 25.9415 130.924 26.594C131.658 27.158 132.415 27.2144 132.955 27.2144C133.672 27.2144 134.558 27.021 135.219 26.3846C136.169 25.4984 136.185 23.9676 136.185 22.2839V20.2375C136.185 17.7642 136.145 17.3533 136.129 16.8377C136.089 16.2738 135.992 16.0079 135.436 15.9112C135.299 15.871 135.243 15.4843 135.428 15.4923C136.153 15.5084 136.862 15.5407 136.91 15.5407C137.096 15.5407 137.829 15.5004 138.465 15.4923C138.618 15.4923 138.667 15.8548 138.457 15.9112C138.014 15.9918 137.893 16.2416 137.861 16.8216C137.821 17.3453 137.805 17.7723 137.805 20.2456V21.9858C137.805 23.8226 137.627 25.7803 136.161 26.9727C134.985 27.9394 133.744 28.1328 132.624 28.1328C131.617 28.1328 129.998 28.0361 128.798 26.9888C127.928 26.2557 127.267 25.0553 127.267 22.6544V20.2375C127.267 17.7239 127.267 17.3372 127.227 16.7974C127.186 16.2738 127.074 16.024 126.55 15.9112C126.397 15.871 126.348 15.4923 126.566 15.4923C127.307 15.5084 128.097 15.5407 128.443 15.5407C128.741 15.5407 129.619 15.5004 130.256 15.4923C130.409 15.4923 130.449 15.871 130.256 15.9112C129.789 15.9918 129.66 16.2818 129.635 16.8377C129.595 17.3614 129.595 17.8448 129.595 20.2375V22.5739H129.587Z" fill="#201F24"/>
<path d="M141.261 20.2374C141.261 17.7238 141.261 17.2807 141.22 16.7409C141.18 16.2011 141.043 15.9836 140.528 15.8708C140.375 15.8306 140.366 15.4841 140.568 15.4922C141.164 15.5083 141.76 15.5405 142.405 15.5405C142.928 15.5405 146.465 15.5405 146.771 15.5244C147.102 15.4841 147.392 15.4438 147.545 15.4277C147.641 15.4116 147.738 15.3472 147.819 15.3472C147.915 15.3472 147.931 15.4277 147.931 15.5002C147.931 15.613 147.819 15.8467 147.778 16.5476C147.77 16.7087 147.754 16.8779 147.746 17.0793C147.738 17.2565 147.335 17.321 147.239 17.1115C147.126 16.8054 146.965 16.6281 146.135 16.5315C145.805 16.4912 144.064 16.4509 143.678 16.4509C143.597 16.4509 143.565 16.5073 143.565 16.6281V20.6322C143.565 20.745 143.581 20.8094 143.678 20.8094C144.08 20.8094 145.942 20.8094 146.369 20.7933C146.852 20.753 147.102 20.6966 147.255 20.5194C147.367 20.3663 147.641 20.3421 147.641 20.4388C147.641 20.5516 147.561 20.9222 147.504 21.7117C147.504 21.897 147.488 22.187 147.472 22.4368C147.456 22.6382 147.077 22.6624 147.045 22.469C146.949 22.0984 146.755 21.8487 146.078 21.7923C145.732 21.752 144.105 21.7359 143.678 21.7359C143.581 21.7359 143.565 21.8165 143.565 21.9131V23.1699C143.565 23.7339 143.549 25.0873 143.565 25.5868C143.605 26.7309 143.855 26.9806 145.635 26.9806C146.078 26.9806 146.796 26.9806 147.222 26.7872C147.601 26.602 147.786 26.3361 147.931 25.8205C147.98 25.6594 148.334 25.7077 148.334 25.8527C148.334 26.3764 148.189 27.2626 148.109 27.5365C147.996 27.9635 147.835 27.9635 147.198 27.9635C145.515 27.9635 144.064 27.9474 142.348 27.8668C141.132 27.8104 141.132 27.0773 141.188 26.4972C141.269 25.8205 141.269 24.5637 141.269 23.1538V20.2535L141.261 20.2374Z" fill="#201F24"/>
<path d="M158.195 20.2376C158.195 17.7643 158.195 17.3373 158.155 16.8137C158.115 16.2739 158.002 16 157.535 15.8791C157.341 15.8308 157.494 15.5166 157.583 15.5166C158.276 15.5166 158.872 15.5327 159.339 15.5327C159.903 15.5327 160.886 15.4763 162.006 15.4763C164.286 15.4763 166.92 15.5569 168.733 17.3696C169.587 18.1994 170.377 19.577 170.377 21.5508C170.377 23.5247 169.466 25.1682 168.524 26.1108C167.734 26.8842 166.066 28.0443 162.876 28.0443C161.635 28.0443 160.105 27.9718 159.283 27.8509C157.857 27.6334 158.203 25.7241 158.203 23.1299V20.2296L158.195 20.2376ZM160.475 22.0584C160.475 23.7986 160.491 25.0151 160.516 25.3293C160.54 25.7966 160.556 26.2961 160.725 26.57C160.918 26.8761 161.635 27.2064 162.868 27.2064C164.495 27.2064 165.559 26.9003 166.558 26.0302C167.621 25.144 167.927 23.6938 167.927 22.0101C167.927 20.0362 167.082 18.7392 166.34 18.006C164.874 16.572 163.029 16.3464 161.756 16.3464C161.41 16.3464 160.79 16.4028 160.677 16.4995C160.499 16.6364 160.467 16.6767 160.467 20.0362V22.0664L160.475 22.0584Z" fill="#201F24"/>
<path d="M171.746 21.7039C171.746 18.8036 173.68 15.2427 178.763 15.2427C183.017 15.2427 185.611 17.8529 185.611 21.3897C185.611 25.1601 182.961 28.1168 178.61 28.1168C173.752 28.1168 171.746 24.6203 171.746 21.6958V21.7039ZM183.098 22.0181C183.098 18.5216 181.084 16.1208 178.264 16.1208C176.371 16.1208 174.244 17.0876 174.244 21.148C174.244 24.5156 176.081 27.2225 179.295 27.2225C180.471 27.2225 183.106 26.7392 183.106 22.0181H183.098Z" fill="#201F24"/>
<path d="M187.239 27.6979C186.965 27.5851 186.908 27.4642 186.908 27.1339C186.908 26.151 186.965 25.1843 186.989 24.8942C187.005 24.6203 187.376 24.6042 187.392 24.7412C187.408 24.9506 187.408 25.2407 187.505 25.5146C187.851 26.7714 188.914 27.295 190.018 27.295C191.565 27.295 192.258 26.3444 192.258 25.4985C192.258 24.7251 192.024 23.9919 190.598 22.9446L189.784 22.3242C187.867 20.8741 187.255 19.7704 187.255 18.4169C187.255 16.5962 188.818 15.2427 191.235 15.2427C192.008 15.2427 192.475 15.3394 192.959 15.4199C193.233 15.4602 193.458 15.5166 193.652 15.5327C193.805 15.5488 193.845 15.6294 193.845 15.7422C193.845 16.0161 193.764 16.4753 193.764 17.7885C193.764 18.1591 193.394 18.1752 193.378 17.9657C193.361 17.7563 193.241 17.289 192.991 16.9184C192.701 16.4753 192.161 16.0483 191.057 16.0483C189.784 16.0483 189.043 16.7412 189.043 17.6918C189.043 18.4088 189.39 19.0453 190.783 19.9959L191.323 20.3665C193.49 21.8328 194.183 22.9768 194.183 24.5398C194.183 25.5468 193.756 26.6828 192.524 27.4562C191.654 27.9798 190.671 28.1168 189.776 28.1168C188.729 28.1168 187.956 28.004 187.223 27.6898L187.239 27.6979Z" fill="#201F24"/>
<path d="M201.781 16.6607C201.781 13.1078 201.78 12.4552 201.732 11.706C201.684 10.9084 201.998 9.96582 203.134 9.9497C203.932 9.94165 205.704 9.8772 206.429 9.8772C207.903 9.8772 209.466 10.0142 210.731 10.8842C211.384 11.3273 212.318 12.5197 212.318 14.0826C212.318 15.8148 211.617 17.3777 209.257 19.2951C211.335 21.9135 212.947 24.0162 214.324 25.4663C215.629 26.8198 216.572 26.989 216.918 27.0534C217.176 27.1018 217.063 27.5449 216.935 27.5449H215.122C213.817 27.5449 213.229 27.4321 212.624 27.1018C211.617 26.562 210.731 25.4663 209.426 23.6697C208.491 22.3807 207.42 20.7936 207.114 20.4472C206.993 20.3102 206.856 20.2861 206.695 20.2861L204.729 20.2377C204.616 20.2377 204.544 20.2861 204.544 20.423V20.7533C204.544 22.9286 204.544 24.7735 204.657 25.7563C204.729 26.4331 204.737 26.8198 205.414 27.0293C205.575 27.0776 205.511 27.5529 205.341 27.5529C204.238 27.5368 203.392 27.4885 203.094 27.4885C202.651 27.4885 201.99 27.5126 201.055 27.5126C200.669 27.5126 200.685 27.1421 200.959 27.0937C201.402 27.0131 201.571 26.4411 201.668 25.7644C201.789 24.7815 201.789 22.9366 201.789 20.7856V16.6768L201.781 16.6607ZM204.536 18.5056C204.536 18.7634 204.584 18.8601 204.745 18.9245C205.237 19.0857 205.938 19.1582 206.518 19.1582C207.452 19.1582 207.758 19.0615 208.177 18.7634C208.878 18.2478 209.555 17.1763 209.555 15.2589C209.555 11.9396 207.356 10.9809 205.978 10.9809C205.398 10.9809 204.971 11.0051 204.737 11.0776C204.576 11.1259 204.528 11.2146 204.528 11.4079V18.5137L204.536 18.5056Z" fill="#201F24"/>
<path d="M218.199 19.859C218.199 17.3454 218.199 16.9023 218.159 16.3625C218.119 15.8227 217.982 15.6052 217.466 15.4924C217.313 15.4521 217.289 15.1057 217.482 15.1138C218.095 15.1299 218.691 15.1621 219.343 15.1621C219.867 15.1621 223.404 15.1621 223.71 15.146C224.04 15.1057 224.33 15.0654 224.483 15.0493C224.58 15.0332 224.677 14.9688 224.757 14.9688C224.854 14.9688 224.87 15.0493 224.87 15.1218C224.87 15.2346 224.757 15.4682 224.717 16.1692C224.709 16.3383 224.693 16.5156 224.685 16.717C224.677 16.8862 224.274 16.9426 224.177 16.7331C224.064 16.427 223.903 16.2497 223.073 16.153C222.743 16.1128 221.003 16.0725 220.616 16.0725C220.536 16.0725 220.503 16.1289 220.503 16.2497V20.2537C220.503 20.3665 220.52 20.431 220.616 20.431C221.019 20.431 222.88 20.431 223.307 20.4149C223.79 20.3746 224.04 20.3182 224.193 20.141C224.306 19.9879 224.58 19.9637 224.58 20.0604C224.58 20.1732 224.499 20.5438 224.443 21.3333C224.443 21.5267 224.427 21.8328 224.411 22.0906C224.403 22.2759 224.024 22.2759 223.984 22.0906C223.887 21.72 223.694 21.4703 223.017 21.4139C222.671 21.3736 221.043 21.3575 220.616 21.3575C220.52 21.3575 220.503 21.438 220.503 21.5347V22.7915C220.503 23.3555 220.487 24.7089 220.503 25.2084C220.544 26.3524 220.794 26.6022 222.574 26.6022C223.017 26.6022 223.734 26.6022 224.161 26.4088C224.532 26.2316 224.725 25.9738 224.862 25.4904C224.886 25.3937 225.281 25.4259 225.273 25.5549C225.233 26.0866 225.136 26.9003 225.055 27.1581C224.943 27.5851 224.781 27.5851 224.145 27.5851C222.461 27.5851 221.011 27.4884 219.295 27.4884C218.602 27.4884 218.079 26.6989 218.135 26.1188C218.215 25.4421 218.215 24.1853 218.215 22.7754V19.8751L218.199 19.859Z" fill="#201F24"/>
<path d="M230.026 22.7594C230.026 24.7896 230.026 25.9336 230.373 26.2237C230.647 26.4976 231.065 26.6104 232.419 26.6104C233.305 26.6104 233.966 26.5943 234.409 26.1834C234.586 26.0223 234.747 25.7322 234.844 25.4261C234.876 25.3213 235.255 25.3133 235.239 25.4744C235.19 25.9578 235.078 26.7796 234.973 27.134C234.86 27.5207 234.779 27.5771 233.925 27.5771C232.201 27.5771 230.638 27.4805 228.818 27.4805C228.125 27.4805 227.601 26.7232 227.658 26.0867C227.738 25.41 227.738 24.1693 227.738 22.7594V19.8591C227.738 17.3455 227.738 16.9588 227.698 16.4351C227.658 15.8954 227.521 15.6456 227.005 15.5248C226.868 15.4845 226.812 15.0978 226.965 15.1058C227.682 15.1219 228.463 15.1622 228.882 15.1622C229.164 15.1622 230.075 15.13 230.767 15.1139C230.969 15.1139 230.912 15.4764 230.703 15.5328C230.236 15.6134 230.107 15.8793 230.066 16.4593C230.026 16.983 230.026 17.3455 230.026 19.8994V22.7594Z" fill="#201F24"/>
<path d="M235.48 21.3254C235.48 18.4251 237.414 14.8641 242.497 14.8641C246.751 14.8641 249.345 17.4744 249.345 21.0112C249.345 24.7816 246.695 27.7383 242.344 27.7383C237.494 27.7383 235.48 24.2418 235.48 21.3173V21.3254ZM246.832 21.6396C246.832 18.1431 244.818 15.7423 241.998 15.7423C240.105 15.7423 237.978 16.709 237.978 20.7695C237.978 24.137 239.815 26.844 243.021 26.844C244.197 26.844 246.832 26.3606 246.832 21.6396ZM245.285 11.8913C245.382 12.1008 245.301 12.1814 245.204 12.1814C245.108 12.1814 244.665 12.2619 244.334 12.3908C243.327 12.7775 242.747 13.3254 242.151 13.6476C242.038 13.7121 241.853 13.8087 241.78 13.8087C241.676 13.8087 241.249 13.704 241.249 13.6073C241.249 13.5268 241.329 13.4543 241.402 13.3334C241.982 12.6567 243.239 11.4402 243.722 11.0937C243.972 10.9004 244.165 10.8037 244.246 10.8037C244.342 10.8037 244.455 10.8601 244.632 10.9971C244.826 11.2065 245.059 11.4643 245.293 11.8833L245.285 11.8913Z" fill="#201F24"/>
<path d="M263.001 26.3363C263.001 26.8761 262.961 26.9164 262.751 27.0292C261.688 27.5528 260.004 27.7462 258.651 27.7462C254.356 27.7462 250.723 25.8127 250.723 21.3091C250.723 18.6586 252.157 16.8459 253.704 15.9355C255.364 14.9849 256.951 14.8721 258.344 14.8721C259.505 14.8721 260.898 15.0493 261.325 15.146C261.712 15.2024 262.308 15.2991 262.719 15.3232C262.912 15.3393 262.928 15.436 262.928 15.5569C262.928 15.7422 262.808 16.1853 262.792 18.0221C262.792 18.1188 262.381 18.1832 262.348 18.0463C262.284 17.7724 262.171 17.4743 261.897 17.1762C261.43 16.5397 260.06 15.7663 258.07 15.7663C257.063 15.7663 255.847 15.8791 254.743 16.8298C253.833 17.6032 253.277 18.7794 253.277 20.7371C253.277 24.1369 255.444 26.8439 259.037 26.8439C259.44 26.8439 260.004 26.8439 260.375 26.6505C260.624 26.5538 260.681 26.3444 260.681 26.0705V24.6767C260.681 23.8872 260.681 23.3071 260.665 22.7835C260.648 22.147 260.487 21.8328 259.907 21.7603C259.754 21.7442 259.722 21.3736 259.915 21.3816C260.689 21.3897 261.478 21.4139 261.897 21.4139C262.34 21.4139 263.049 21.3897 263.637 21.3816C263.766 21.3816 263.863 21.7281 263.654 21.7442C263.17 21.8006 263.033 22.1148 263.017 22.6707C263.001 23.1943 263.001 23.8308 263.001 24.6606V26.3444V26.3363Z" fill="#201F24"/>
<path d="M266.457 19.859C266.457 17.3454 266.457 16.9587 266.417 16.4189C266.377 15.8791 266.207 15.6052 265.837 15.5327C265.66 15.4924 265.676 15.1138 265.853 15.1138C266.505 15.1299 267.287 15.1621 267.617 15.1621C267.931 15.1621 268.737 15.1218 269.382 15.1138C269.535 15.1138 269.607 15.4763 269.414 15.5166C268.947 15.5972 268.818 15.8872 268.777 16.4431C268.721 16.9667 268.721 17.3534 268.721 19.867V22.7673C268.721 24.3142 268.737 25.571 268.818 26.2638C268.858 26.7069 268.995 27.0533 269.494 27.1178C269.744 27.1742 269.728 27.5448 269.511 27.5367C268.632 27.5206 267.867 27.4884 267.545 27.4884C267.279 27.4884 266.489 27.5287 265.829 27.5367C265.668 27.5367 265.684 27.1742 265.837 27.1339C266.167 27.0533 266.32 26.7633 266.36 26.3041C266.457 25.6113 266.457 24.3706 266.457 22.7673V19.867V19.859Z" fill="#201F24"/>
<path d="M271.291 21.3252C271.291 18.4249 273.225 14.864 278.308 14.864C282.562 14.864 285.156 17.4743 285.156 21.011C285.156 24.7814 282.506 27.7381 278.155 27.7381C273.305 27.7381 271.291 24.2417 271.291 21.3172V21.3252ZM282.642 21.6394C282.642 18.143 280.628 15.7422 277.809 15.7422C275.915 15.7422 273.789 16.7089 273.789 20.7694C273.789 24.1369 275.625 26.8439 278.832 26.8439C280.008 26.8439 282.642 26.3605 282.642 21.6394Z" fill="#201F24"/>
<path d="M286.775 27.3273C286.501 27.2145 286.445 27.0936 286.445 26.7633C286.445 25.7804 286.501 24.8137 286.526 24.5236C286.542 24.2497 286.912 24.2336 286.928 24.3706C286.945 24.58 286.945 24.8701 287.041 25.144C287.388 26.4008 288.451 26.9244 289.555 26.9244C291.102 26.9244 291.795 25.9738 291.795 25.1279C291.795 24.3544 291.561 23.6213 290.135 22.574L289.321 21.9536C287.404 20.5035 286.792 19.3998 286.792 18.0463C286.792 16.2255 288.354 14.8721 290.771 14.8721C291.545 14.8721 292.012 14.9687 292.495 15.0493C292.769 15.0896 292.995 15.146 293.188 15.1621C293.341 15.1782 293.382 15.2588 293.382 15.3716C293.382 15.6455 293.301 16.1047 293.301 17.4179C293.301 17.7885 292.93 17.8046 292.914 17.5951C292.898 17.3857 292.777 16.9184 292.528 16.5478C292.238 16.1047 291.698 15.6777 290.594 15.6777C289.321 15.6777 288.58 16.3706 288.58 17.3212C288.58 18.0382 288.926 18.6747 290.32 19.6253L290.86 19.9959C293.027 21.4622 293.72 22.6062 293.72 24.1692C293.72 25.1762 293.293 26.3122 292.06 27.0856C291.19 27.6092 290.207 27.7462 289.313 27.7462C288.266 27.7462 287.492 27.6334 286.759 27.3192L286.775 27.3273Z" fill="#201F24"/>
</svg>
