<svg width="295" height="40" viewBox="0 0 295 40" fill="none" xmlns="http://www.w3.org/2000/svg">
<path d="M19.7542 5.08374C11.3916 5.08374 4.6001 11.8672 4.6001 20.2378C4.6001 28.6084 11.3836 35.3919 19.7542 35.3919C28.1248 35.3919 34.9083 28.6084 34.9083 20.2378C34.9083 11.8672 28.1248 5.08374 19.7542 5.08374ZM12.4309 17.4906L12.9546 15.4845L11.3594 14.1552C11.1661 13.9941 11.1661 13.696 11.3594 13.5349L12.9626 12.2217L12.4551 10.2157C12.3906 9.97397 12.5679 9.73228 12.8176 9.71617L14.8881 9.59532L15.6535 7.66984C15.7501 7.43621 16.0321 7.34759 16.2416 7.48455L17.9818 8.60438L19.7381 7.50066C19.9475 7.3637 20.2295 7.46038 20.3262 7.69401L21.0754 9.62755L23.1459 9.76451C23.3957 9.78062 23.5729 10.0223 23.5085 10.264L22.9848 12.27L24.58 13.5913C24.7733 13.7524 24.7733 14.0505 24.58 14.2116L22.9767 15.5248L23.4843 17.5309C23.5487 17.7726 23.3715 18.0143 23.1217 18.0304L21.0513 18.1512L20.2859 20.0767C20.1892 20.3103 19.9072 20.3989 19.6978 20.262L17.9576 19.1421L16.2013 20.2459C15.9918 20.3828 15.7099 20.2862 15.6132 20.0525L14.8639 18.119L12.7935 17.982C12.5437 17.9659 12.3665 17.7242 12.4309 17.4825V17.4906ZM21.7844 28.3667L20.7693 29.1965L21.0915 30.4694C21.156 30.7111 20.9787 30.9528 20.729 30.9689L19.4158 31.0414L18.9244 32.266C18.8277 32.4996 18.5457 32.5883 18.3362 32.4513L17.2325 31.7423L16.1207 32.4433C15.9113 32.5802 15.6293 32.4835 15.5326 32.2499L15.0573 31.0253L13.7441 30.9367C13.4944 30.9206 13.3171 30.6789 13.3816 30.4372L13.7199 29.1643L12.7129 28.3264C12.5195 28.1653 12.5195 27.8672 12.7129 27.7061L13.728 26.8763L13.4057 25.6034C13.3413 25.3617 13.5185 25.12 13.7683 25.1039L15.0815 25.0314L15.5729 23.8068C15.6696 23.5732 15.9516 23.4845 16.161 23.6215L17.2647 24.3305L18.3765 23.6296C18.586 23.4926 18.868 23.5893 18.9647 23.8229L19.44 25.0475L20.7532 25.1361C21.0029 25.1522 21.1802 25.3939 21.1157 25.6356L20.7773 26.9085L21.7844 27.7464C21.9777 27.9075 21.9777 28.2056 21.7844 28.3667ZM31.8629 26.0626C31.9274 26.3043 31.7501 26.546 31.5004 26.5621L29.7924 26.6588L29.156 28.2539C29.0593 28.4876 28.7773 28.5762 28.5679 28.4392L27.1258 27.5127L25.6756 28.4231C25.4662 28.5601 25.1842 28.4634 25.0875 28.2298L24.4672 26.6346L22.7592 26.5218C22.5095 26.5057 22.3322 26.264 22.3967 26.0223L22.8317 24.3627L21.5185 23.267C21.3252 23.1059 21.3252 22.8078 21.5185 22.6467L22.8478 21.5591L22.4289 19.8995C22.3644 19.6578 22.5417 19.4161 22.7914 19.4L24.4994 19.3033L25.1358 17.7081C25.2325 17.4745 25.5145 17.3859 25.724 17.5228L27.1661 18.4493L28.6162 17.5389C28.8257 17.402 29.1077 17.4986 29.2043 17.7323L29.8247 19.3274L31.5326 19.4402C31.7824 19.4563 31.9596 19.698 31.8952 19.9397L31.4601 21.5993L32.7733 22.695C32.9667 22.8561 32.9667 23.1542 32.7733 23.3154L31.444 24.403L31.8629 26.0626Z" fill="white"/>
<path d="M19.8508 38.4291C29.8664 38.4291 37.9857 30.3098 37.9857 20.2941C37.9857 10.2785 29.8664 2.15918 19.8508 2.15918C9.83511 2.15918 1.71582 10.2785 1.71582 20.2941C1.71582 30.3098 9.83511 38.4291 19.8508 38.4291Z" stroke="white" stroke-width="1.61128" stroke-miterlimit="10"/>
<path d="M50.6103 17.0957C50.6103 13.5429 50.6103 12.8903 50.5619 12.1411C50.5216 11.5207 50.4008 11.1662 49.9819 10.9487C49.716 10.8118 49.9174 10.3203 50.151 10.3284C51.0856 10.3848 51.5287 10.3848 51.9396 10.3848C53.0836 10.3848 53.9939 10.3123 54.7915 10.3123C59.0211 10.3123 59.7704 12.5761 59.7704 13.8168C59.7704 15.7342 58.6747 16.8782 57.3857 17.9094C59.3031 18.562 61.6395 20.2216 61.6395 22.9608C61.6395 25.4583 59.6979 28.0524 55.4038 28.0524C54.3323 28.0524 53.2528 27.9155 52.0121 27.9155C51.2064 27.9155 50.6747 27.9155 49.7966 27.8913C49.434 27.8833 49.4582 27.3676 49.6274 27.271C50.0785 27.0293 50.425 26.6667 50.4894 26.1834C50.6103 25.2005 50.6103 23.3556 50.6103 21.2045V17.0957ZM53.4139 17.4986C53.4139 17.6839 53.4864 17.7322 53.575 17.7564C53.7845 17.8047 54.139 17.8289 54.6707 17.8289C55.4441 17.8289 55.9597 17.7322 56.3545 17.3858C56.9587 16.8943 57.3132 16.0565 57.3132 14.9125C57.3132 13.3495 56.4028 11.2871 54.3887 11.2871C54.0584 11.2871 53.8489 11.2871 53.6153 11.3354C53.4542 11.3838 53.4058 11.4724 53.4058 11.7302V17.5066L53.4139 17.4986ZM53.4139 20.6728V24.4835C53.4139 26.0222 53.4864 26.425 54.2356 26.7231C54.864 26.9809 55.4038 27.0051 55.9436 27.0051C56.999 27.0051 58.7714 26.4412 58.7714 24.0162C58.7714 22.566 58.2799 20.6003 56.5075 19.3676C56.0161 19.0132 55.4763 18.852 54.566 18.8037C54.147 18.7795 53.9134 18.7795 53.5589 18.7795C53.4622 18.7795 53.4219 18.8279 53.4219 18.9407V20.6728H53.4139Z" fill="white"/>
<path d="M63.6538 21.7039C63.6538 18.8036 65.5873 15.2427 70.6709 15.2427C74.9247 15.2427 77.5189 17.8529 77.5189 21.3897C77.5189 25.1601 74.8683 28.1168 70.5179 28.1168C65.6679 28.1168 63.6538 24.6203 63.6538 21.6958V21.7039ZM75.0053 22.0181C75.0053 18.5216 72.9912 16.1208 70.1714 16.1208C68.2782 16.1208 66.1513 17.0876 66.1513 21.148C66.1513 24.5156 67.9881 27.2225 71.1946 27.2225C72.3708 27.2225 75.0053 26.7392 75.0053 22.0181Z" fill="white"/>
<path d="M82.2719 22.574C82.2719 24.9506 82.7392 25.9416 83.6093 26.5941C84.3424 27.1581 85.0997 27.2145 85.6395 27.2145C86.3565 27.2145 87.2427 27.0211 87.9033 26.3847C88.854 25.4985 88.8701 23.9678 88.8701 22.284V20.2376C88.8701 17.7643 88.8298 17.3535 88.8137 16.8378C88.7734 16.2739 88.6768 16.008 88.1209 15.9114C87.9195 15.8791 87.9275 15.4844 88.1048 15.4924C88.8298 15.5085 89.5388 15.5408 89.5871 15.5408C89.7724 15.5408 90.5136 15.5005 91.1581 15.4844C91.3031 15.4844 91.3434 15.8469 91.134 15.9033C90.6909 15.9839 90.57 16.2336 90.5378 16.8137C90.4975 17.3373 90.4814 17.7643 90.4814 20.2376V21.9778C90.4814 23.8147 90.3042 25.7724 88.8379 26.9647C87.6617 27.9315 86.421 28.1249 85.3011 28.1249C84.2941 28.1249 82.6747 28.0282 81.4743 26.9809C80.6043 26.2477 79.9436 25.0473 79.9436 22.6465V20.2296C79.9436 17.716 79.9436 17.3293 79.9033 16.7895C79.8631 16.2658 79.7503 16.0161 79.2266 15.9033C79.0735 15.863 79.0171 15.4844 79.2266 15.4844C79.9759 15.5005 80.7734 15.5327 81.1199 15.5327C81.426 15.5327 82.3364 15.4924 82.9809 15.4763C83.1178 15.4763 83.1259 15.855 82.9326 15.8953C82.4653 15.9758 82.3364 16.2658 82.3122 16.8217C82.2719 17.3454 82.2719 17.8288 82.2719 20.2215V22.5579V22.574Z" fill="white"/>
<path d="M99.2307 23.1379C99.2307 24.6042 99.2307 25.9013 99.3113 26.6183C99.3677 27.0614 99.4644 27.432 99.988 27.4884C100.222 27.5287 100.262 27.9073 100.02 27.9073C99.1582 27.8912 98.3687 27.859 98.0384 27.859C97.7403 27.859 96.9588 27.8912 96.3224 27.9073C96.1371 27.9073 96.1854 27.5448 96.3385 27.5126C96.7091 27.432 96.8058 27.0856 96.8622 26.6022C96.9427 25.9093 96.9427 24.6687 96.9427 23.1379V16.4511C96.3063 16.4511 95.0253 16.4511 94.2519 16.5075C93.269 16.5881 92.979 16.6606 92.7453 17.0876C92.7131 17.144 92.6406 17.2568 92.6003 17.3615C92.56 17.4743 92.1895 17.5065 92.1895 17.3132C92.1895 17.2326 92.2297 17.1118 92.2539 16.9426C92.3506 16.4028 92.5037 15.7663 92.5278 15.6052C92.5681 15.3716 92.6245 15.2588 92.7212 15.2588C92.8581 15.2588 93.0112 15.4119 93.4382 15.4521C93.9055 15.5085 94.5983 15.5488 95.1784 15.5488H102.026C102.566 15.5488 102.937 15.4924 103.186 15.4521C103.436 15.4119 103.573 15.3716 103.67 15.3716C103.783 15.3716 103.807 15.4683 103.807 15.7583C103.807 16.0322 103.75 16.8862 103.734 17.4179C103.734 17.5307 103.38 17.5951 103.364 17.4421C103.323 16.999 102.921 16.5559 101.487 16.5317C101.019 16.4914 100.31 16.4753 99.2469 16.4511V23.1379H99.2307Z" fill="white"/>
<path d="M106.015 20.2376C106.015 17.7241 106.015 17.3373 105.974 16.7976C105.934 16.2578 105.765 15.9839 105.394 15.9114C105.217 15.8711 105.233 15.4924 105.41 15.4924C106.063 15.5085 106.844 15.5408 107.175 15.5408C107.505 15.5408 108.343 15.5005 108.995 15.4844C109.124 15.4844 109.173 15.8469 108.979 15.8872C108.512 15.9678 108.383 16.2578 108.343 16.8137C108.286 17.3373 108.286 17.7241 108.286 20.2376V23.1379C108.286 24.6848 108.303 25.9416 108.383 26.6344C108.423 27.0775 108.56 27.424 109.06 27.4884C109.31 27.5448 109.302 27.9154 109.084 27.9073C108.206 27.8912 107.432 27.859 107.102 27.859C106.836 27.859 106.039 27.8993 105.386 27.9073C105.225 27.9073 105.249 27.5448 105.402 27.5045C105.733 27.424 105.886 27.1339 105.926 26.6747C106.023 25.9819 106.023 24.7412 106.023 23.1379V20.2376H106.015Z" fill="white"/>
<path d="M117.793 28.1249C112.806 28.1249 110.848 24.5639 110.848 21.6072C110.848 18.86 112.878 15.2427 117.865 15.2427C122.006 15.2427 124.786 17.716 124.786 21.4542C124.786 24.2739 123.046 26.0544 121.902 26.8278L125.245 28.5116C128.822 30.2679 131.046 30.4854 132.262 30.4854C133.189 30.4854 134.389 30.3726 135.493 29.9214C135.605 29.8811 135.702 29.8409 135.767 29.8409C135.863 29.8409 135.944 29.8973 135.944 29.9939C135.944 30.0906 135.847 30.1873 135.734 30.2437C134.671 30.7835 132.657 31.5408 130.127 31.5408C127.597 31.5408 125.761 30.8801 122.973 29.3011L120.282 27.7543C119.622 27.9879 118.655 28.1249 117.785 28.1249H117.793ZM122.2 21.9617C122.2 18.1913 119.92 16.1208 117.446 16.1208C115.336 16.1208 113.402 17.3776 113.402 21.1883C113.402 24.999 115.666 27.2225 118.413 27.2225C119.726 27.2225 122.2 26.723 122.2 21.9617Z" fill="white"/>
<path d="M129.587 22.5739C129.587 24.9505 130.055 25.9415 130.925 26.594C131.658 27.158 132.415 27.2144 132.955 27.2144C133.672 27.2144 134.558 27.021 135.219 26.3846C136.169 25.4984 136.186 23.9676 136.186 22.2839V20.2375C136.186 17.7642 136.145 17.3533 136.129 16.8377C136.089 16.2738 135.992 16.0079 135.436 15.9112C135.299 15.871 135.243 15.4843 135.428 15.4923C136.153 15.5084 136.862 15.5407 136.911 15.5407C137.096 15.5407 137.829 15.5004 138.466 15.4923C138.619 15.4923 138.667 15.8548 138.457 15.9112C138.014 15.9918 137.894 16.2416 137.861 16.8216C137.821 17.3453 137.805 17.7723 137.805 20.2456V21.9858C137.805 23.8226 137.628 25.7803 136.161 26.9727C134.985 27.9394 133.744 28.1328 132.625 28.1328C131.618 28.1328 129.998 28.0361 128.798 26.9888C127.928 26.2557 127.267 25.0553 127.267 22.6544V20.2375C127.267 17.7239 127.267 17.3372 127.227 16.7974C127.187 16.2738 127.074 16.024 126.55 15.9112C126.397 15.871 126.349 15.4923 126.566 15.4923C127.307 15.5084 128.097 15.5407 128.443 15.5407C128.741 15.5407 129.62 15.5004 130.256 15.4923C130.409 15.4923 130.449 15.871 130.256 15.9112C129.789 15.9918 129.66 16.2818 129.636 16.8377C129.595 17.3614 129.595 17.8448 129.595 20.2375V22.5739H129.587Z" fill="white"/>
<path d="M141.261 20.2374C141.261 17.7238 141.261 17.2807 141.221 16.7409C141.181 16.2011 141.044 15.9836 140.528 15.8708C140.375 15.8306 140.367 15.4841 140.568 15.4922C141.165 15.5083 141.761 15.5405 142.405 15.5405C142.929 15.5405 146.466 15.5405 146.772 15.5244C147.102 15.4841 147.392 15.4438 147.545 15.4277C147.642 15.4116 147.739 15.3472 147.819 15.3472C147.916 15.3472 147.932 15.4277 147.932 15.5002C147.932 15.613 147.819 15.8467 147.779 16.5476C147.771 16.7087 147.755 16.8779 147.747 17.0793C147.739 17.2565 147.336 17.321 147.239 17.1115C147.126 16.8054 146.965 16.6281 146.135 16.5315C145.805 16.4912 144.065 16.4509 143.678 16.4509C143.598 16.4509 143.565 16.5073 143.565 16.6281V20.6322C143.565 20.745 143.581 20.8094 143.678 20.8094C144.081 20.8094 145.942 20.8094 146.369 20.7933C146.852 20.753 147.102 20.6966 147.255 20.5194C147.368 20.3663 147.642 20.3421 147.642 20.4388C147.642 20.5516 147.561 20.9222 147.505 21.7117C147.505 21.897 147.489 22.187 147.473 22.4368C147.457 22.6382 147.078 22.6624 147.046 22.469C146.949 22.0984 146.756 21.8487 146.079 21.7923C145.733 21.752 144.105 21.7359 143.678 21.7359C143.581 21.7359 143.565 21.8165 143.565 21.9131V23.1699C143.565 23.7339 143.549 25.0873 143.565 25.5868C143.606 26.7309 143.855 26.9806 145.636 26.9806C146.079 26.9806 146.796 26.9806 147.223 26.7872C147.602 26.602 147.787 26.3361 147.932 25.8205C147.98 25.6594 148.335 25.7077 148.335 25.8527C148.335 26.3764 148.19 27.2626 148.109 27.5365C147.996 27.9635 147.835 27.9635 147.199 27.9635C145.515 27.9635 144.065 27.9474 142.349 27.8668C141.132 27.8104 141.132 27.0773 141.189 26.4972C141.269 25.8205 141.269 24.5637 141.269 23.1538V20.2535L141.261 20.2374Z" fill="white"/>
<path d="M158.195 20.2376C158.195 17.7643 158.195 17.3373 158.155 16.8137C158.115 16.2739 158.002 16 157.535 15.8791C157.341 15.8308 157.494 15.5166 157.583 15.5166C158.276 15.5166 158.872 15.5327 159.339 15.5327C159.903 15.5327 160.886 15.4763 162.006 15.4763C164.286 15.4763 166.92 15.5569 168.733 17.3696C169.587 18.1994 170.377 19.577 170.377 21.5508C170.377 23.5247 169.466 25.1682 168.524 26.1108C167.734 26.8842 166.066 28.0443 162.876 28.0443C161.635 28.0443 160.105 27.9718 159.283 27.8509C157.857 27.6334 158.203 25.7241 158.203 23.1299V20.2296L158.195 20.2376ZM160.475 22.0584C160.475 23.7986 160.491 25.0151 160.516 25.3293C160.54 25.7966 160.556 26.2961 160.725 26.57C160.918 26.8761 161.635 27.2064 162.868 27.2064C164.495 27.2064 165.559 26.9003 166.558 26.0302C167.621 25.144 167.927 23.6938 167.927 22.0101C167.927 20.0362 167.082 18.7392 166.34 18.006C164.874 16.572 163.029 16.3464 161.756 16.3464C161.41 16.3464 160.79 16.4028 160.677 16.4995C160.499 16.6364 160.467 16.6767 160.467 20.0362V22.0664L160.475 22.0584Z" fill="white"/>
<path d="M171.746 21.7039C171.746 18.8036 173.68 15.2427 178.763 15.2427C183.017 15.2427 185.611 17.8529 185.611 21.3897C185.611 25.1601 182.961 28.1168 178.61 28.1168C173.752 28.1168 171.746 24.6203 171.746 21.6958V21.7039ZM183.098 22.0181C183.098 18.5216 181.083 16.1208 178.264 16.1208C176.37 16.1208 174.244 17.0876 174.244 21.148C174.244 24.5156 176.08 27.2225 179.295 27.2225C180.471 27.2225 183.106 26.7392 183.106 22.0181H183.098Z" fill="white"/>
<path d="M187.239 27.6979C186.965 27.5851 186.908 27.4642 186.908 27.1339C186.908 26.151 186.965 25.1843 186.989 24.8942C187.005 24.6203 187.375 24.6042 187.392 24.7412C187.408 24.9506 187.408 25.2407 187.504 25.5146C187.851 26.7714 188.914 27.295 190.018 27.295C191.565 27.295 192.258 26.3444 192.258 25.4985C192.258 24.7251 192.024 23.9919 190.598 22.9446L189.784 22.3242C187.867 20.8741 187.255 19.7704 187.255 18.4169C187.255 16.5962 188.818 15.2427 191.234 15.2427C192.008 15.2427 192.475 15.3394 192.959 15.4199C193.232 15.4602 193.458 15.5166 193.651 15.5327C193.804 15.5488 193.845 15.6294 193.845 15.7422C193.845 16.0161 193.764 16.4753 193.764 17.7885C193.764 18.1591 193.394 18.1752 193.377 17.9657C193.361 17.7563 193.241 17.289 192.991 16.9184C192.701 16.4753 192.161 16.0483 191.057 16.0483C189.784 16.0483 189.043 16.7412 189.043 17.6918C189.043 18.4088 189.39 19.0453 190.783 19.9959L191.323 20.3665C193.49 21.8328 194.183 22.9768 194.183 24.5398C194.183 25.5468 193.756 26.6828 192.524 27.4562C191.653 27.9798 190.671 28.1168 189.776 28.1168C188.729 28.1168 187.956 28.004 187.222 27.6898L187.239 27.6979Z" fill="white"/>
<path d="M201.78 16.6607C201.78 13.1078 201.78 12.4552 201.732 11.706C201.684 10.9084 201.998 9.96582 203.134 9.9497C203.931 9.94165 205.704 9.8772 206.429 9.8772C207.903 9.8772 209.466 10.0142 210.731 10.8842C211.384 11.3273 212.318 12.5197 212.318 14.0826C212.318 15.8148 211.617 17.3777 209.257 19.2951C211.335 21.9135 212.947 24.0162 214.324 25.4663C215.629 26.8198 216.572 26.989 216.918 27.0534C217.176 27.1018 217.063 27.5449 216.934 27.5449H215.122C213.817 27.5449 213.229 27.4321 212.624 27.1018C211.617 26.562 210.731 25.4663 209.426 23.6697C208.491 22.3807 207.42 20.7936 207.114 20.4472C206.993 20.3102 206.856 20.2861 206.695 20.2861L204.729 20.2377C204.616 20.2377 204.544 20.2861 204.544 20.423V20.7533C204.544 22.9286 204.544 24.7735 204.657 25.7563C204.729 26.4331 204.737 26.8198 205.414 27.0293C205.575 27.0776 205.51 27.5529 205.341 27.5529C204.238 27.5368 203.392 27.4885 203.094 27.4885C202.65 27.4885 201.99 27.5126 201.055 27.5126C200.669 27.5126 200.685 27.1421 200.959 27.0937C201.402 27.0131 201.571 26.4411 201.668 25.7644C201.788 24.7815 201.788 22.9366 201.788 20.7856V16.6768L201.78 16.6607ZM204.536 18.5056C204.536 18.7634 204.584 18.8601 204.745 18.9245C205.237 19.0857 205.937 19.1582 206.518 19.1582C207.452 19.1582 207.758 19.0615 208.177 18.7634C208.878 18.2478 209.555 17.1763 209.555 15.2589C209.555 11.9396 207.355 10.9809 205.978 10.9809C205.398 10.9809 204.971 11.0051 204.737 11.0776C204.576 11.1259 204.528 11.2146 204.528 11.4079V18.5137L204.536 18.5056Z" fill="white"/>
<path d="M218.199 19.859C218.199 17.3454 218.199 16.9023 218.159 16.3625C218.119 15.8227 217.982 15.6052 217.466 15.4924C217.313 15.4521 217.289 15.1057 217.482 15.1138C218.095 15.1299 218.691 15.1621 219.343 15.1621C219.867 15.1621 223.404 15.1621 223.71 15.146C224.04 15.1057 224.33 15.0654 224.483 15.0493C224.58 15.0332 224.677 14.9688 224.757 14.9688C224.854 14.9688 224.87 15.0493 224.87 15.1218C224.87 15.2346 224.757 15.4682 224.717 16.1692C224.709 16.3383 224.693 16.5156 224.685 16.717C224.677 16.8862 224.274 16.9426 224.177 16.7331C224.064 16.427 223.903 16.2497 223.073 16.153C222.743 16.1128 221.003 16.0725 220.616 16.0725C220.536 16.0725 220.503 16.1289 220.503 16.2497V20.2537C220.503 20.3665 220.519 20.431 220.616 20.431C221.019 20.431 222.88 20.431 223.307 20.4149C223.79 20.3746 224.04 20.3182 224.193 20.141C224.306 19.9879 224.58 19.9637 224.58 20.0604C224.58 20.1732 224.499 20.5438 224.443 21.3333C224.443 21.5267 224.427 21.8328 224.411 22.0906C224.403 22.2759 224.024 22.2759 223.984 22.0906C223.887 21.72 223.694 21.4703 223.017 21.4139C222.671 21.3736 221.043 21.3575 220.616 21.3575C220.519 21.3575 220.503 21.438 220.503 21.5347V22.7915C220.503 23.3555 220.487 24.7089 220.503 25.2084C220.544 26.3524 220.793 26.6022 222.574 26.6022C223.017 26.6022 223.734 26.6022 224.161 26.4088C224.532 26.2316 224.725 25.9738 224.862 25.4904C224.886 25.3937 225.281 25.4259 225.273 25.5549C225.232 26.0866 225.136 26.9003 225.055 27.1581C224.942 27.5851 224.781 27.5851 224.145 27.5851C222.461 27.5851 221.011 27.4884 219.295 27.4884C218.602 27.4884 218.078 26.6989 218.135 26.1188C218.215 25.4421 218.215 24.1853 218.215 22.7754V19.8751L218.199 19.859Z" fill="white"/>
<path d="M230.026 22.7594C230.026 24.7896 230.026 25.9336 230.372 26.2237C230.646 26.4976 231.065 26.6104 232.419 26.6104C233.305 26.6104 233.966 26.5943 234.409 26.1834C234.586 26.0223 234.747 25.7322 234.844 25.4261C234.876 25.3213 235.255 25.3133 235.239 25.4744C235.19 25.9578 235.077 26.7796 234.973 27.134C234.86 27.5207 234.779 27.5771 233.925 27.5771C232.201 27.5771 230.638 27.4805 228.818 27.4805C228.125 27.4805 227.601 26.7232 227.657 26.0867C227.738 25.41 227.738 24.1693 227.738 22.7594V19.8591C227.738 17.3455 227.738 16.9588 227.698 16.4351C227.657 15.8954 227.521 15.6456 227.005 15.5248C226.868 15.4845 226.812 15.0978 226.965 15.1058C227.682 15.1219 228.463 15.1622 228.882 15.1622C229.164 15.1622 230.074 15.13 230.767 15.1139C230.969 15.1139 230.912 15.4764 230.703 15.5328C230.236 15.6134 230.107 15.8793 230.066 16.4593C230.026 16.983 230.026 17.3455 230.026 19.8994V22.7594Z" fill="white"/>
<path d="M235.48 21.3254C235.48 18.4251 237.414 14.8641 242.497 14.8641C246.751 14.8641 249.345 17.4744 249.345 21.0112C249.345 24.7816 246.694 27.7383 242.344 27.7383C237.494 27.7383 235.48 24.2418 235.48 21.3173V21.3254ZM246.831 21.6396C246.831 18.1431 244.817 15.7423 241.998 15.7423C240.104 15.7423 237.977 16.709 237.977 20.7695C237.977 24.137 239.814 26.844 243.021 26.844C244.197 26.844 246.831 26.3606 246.831 21.6396ZM245.285 11.8913C245.381 12.1008 245.301 12.1814 245.204 12.1814C245.107 12.1814 244.664 12.2619 244.334 12.3908C243.327 12.7775 242.747 13.3254 242.151 13.6476C242.038 13.7121 241.853 13.8087 241.78 13.8087C241.675 13.8087 241.248 13.704 241.248 13.6073C241.248 13.5268 241.329 13.4543 241.401 13.3334C241.981 12.6567 243.238 11.4402 243.722 11.0937C243.971 10.9004 244.165 10.8037 244.245 10.8037C244.342 10.8037 244.455 10.8601 244.632 10.9971C244.825 11.2065 245.059 11.4643 245.293 11.8833L245.285 11.8913Z" fill="white"/>
<path d="M263.001 26.3363C263.001 26.8761 262.961 26.9164 262.751 27.0292C261.688 27.5528 260.004 27.7462 258.651 27.7462C254.357 27.7462 250.723 25.8127 250.723 21.3091C250.723 18.6586 252.157 16.8459 253.704 15.9355C255.364 14.9849 256.951 14.8721 258.345 14.8721C259.505 14.8721 260.898 15.0493 261.325 15.146C261.712 15.2024 262.308 15.2991 262.719 15.3232C262.912 15.3393 262.929 15.436 262.929 15.5569C262.929 15.7422 262.808 16.1853 262.792 18.0221C262.792 18.1188 262.381 18.1832 262.349 18.0463C262.284 17.7724 262.171 17.4743 261.897 17.1762C261.43 16.5397 260.061 15.7663 258.071 15.7663C257.064 15.7663 255.847 15.8791 254.743 16.8298C253.833 17.6032 253.277 18.7794 253.277 20.7371C253.277 24.1369 255.444 26.8439 259.037 26.8439C259.44 26.8439 260.004 26.8439 260.375 26.6505C260.624 26.5538 260.681 26.3444 260.681 26.0705V24.6767C260.681 23.8872 260.681 23.3071 260.665 22.7835C260.649 22.147 260.487 21.8328 259.907 21.7603C259.754 21.7442 259.722 21.3736 259.915 21.3816C260.689 21.3897 261.478 21.4139 261.897 21.4139C262.34 21.4139 263.049 21.3897 263.638 21.3816C263.766 21.3816 263.863 21.7281 263.654 21.7442C263.17 21.8006 263.033 22.1148 263.017 22.6707C263.001 23.1943 263.001 23.8308 263.001 24.6606V26.3444V26.3363Z" fill="white"/>
<path d="M266.457 19.859C266.457 17.3454 266.457 16.9587 266.417 16.4189C266.376 15.8791 266.207 15.6052 265.837 15.5327C265.659 15.4924 265.675 15.1138 265.853 15.1138C266.505 15.1299 267.287 15.1621 267.617 15.1621C267.931 15.1621 268.737 15.1218 269.381 15.1138C269.534 15.1138 269.607 15.4763 269.414 15.5166C268.946 15.5972 268.817 15.8872 268.777 16.4431C268.721 16.9667 268.721 17.3534 268.721 19.867V22.7673C268.721 24.3142 268.737 25.571 268.817 26.2638C268.858 26.7069 268.995 27.0533 269.494 27.1178C269.744 27.1742 269.728 27.5448 269.51 27.5367C268.632 27.5206 267.867 27.4884 267.545 27.4884C267.279 27.4884 266.489 27.5287 265.829 27.5367C265.667 27.5367 265.684 27.1742 265.837 27.1339C266.167 27.0533 266.32 26.7633 266.36 26.3041C266.457 25.6113 266.457 24.3706 266.457 22.7673V19.867V19.859Z" fill="white"/>
<path d="M271.291 21.3252C271.291 18.4249 273.225 14.864 278.308 14.864C282.562 14.864 285.156 17.4743 285.156 21.011C285.156 24.7814 282.506 27.7381 278.155 27.7381C273.305 27.7381 271.291 24.2417 271.291 21.3172V21.3252ZM282.642 21.6394C282.642 18.143 280.628 15.7422 277.809 15.7422C275.915 15.7422 273.789 16.7089 273.789 20.7694C273.789 24.1369 275.625 26.8439 278.832 26.8439C280.008 26.8439 282.642 26.3605 282.642 21.6394Z" fill="white"/>
<path d="M286.775 27.3273C286.501 27.2145 286.445 27.0936 286.445 26.7633C286.445 25.7804 286.501 24.8137 286.525 24.5236C286.542 24.2497 286.912 24.2336 286.928 24.3706C286.944 24.58 286.944 24.8701 287.041 25.144C287.387 26.4008 288.451 26.9244 289.555 26.9244C291.101 26.9244 291.794 25.9738 291.794 25.1279C291.794 24.3544 291.561 23.6213 290.135 22.574L289.321 21.9536C287.404 20.5035 286.791 19.3998 286.791 18.0463C286.791 16.2255 288.354 14.8721 290.771 14.8721C291.545 14.8721 292.012 14.9687 292.495 15.0493C292.769 15.0896 292.995 15.146 293.188 15.1621C293.341 15.1782 293.381 15.2588 293.381 15.3716C293.381 15.6455 293.301 16.1047 293.301 17.4179C293.301 17.7885 292.93 17.8046 292.914 17.5951C292.898 17.3857 292.777 16.9184 292.527 16.5478C292.237 16.1047 291.698 15.6777 290.594 15.6777C289.321 15.6777 288.58 16.3706 288.58 17.3212C288.58 18.0382 288.926 18.6747 290.32 19.6253L290.86 19.9959C293.027 21.4622 293.72 22.6062 293.72 24.1692C293.72 25.1762 293.293 26.3122 292.06 27.0856C291.19 27.6092 290.207 27.7462 289.313 27.7462C288.266 27.7462 287.492 27.6334 286.759 27.3192L286.775 27.3273Z" fill="white"/>
</svg>

