<svg width="24" height="24" viewBox="0 0 24 24" fill="none" xmlns="http://www.w3.org/2000/svg">
<path d="M1.72754 5.76648L5.22136 7.64677L8.33999 7.10681C9.39274 6.92454 10.4716 7.2259 11.2775 7.92735" stroke="#895F34" stroke-width="1.71" stroke-linecap="round" stroke-linejoin="round"/>
<path d="M18.8178 15.634L13.8781 19.1422C12.7922 19.9135 11.3411 19.9273 10.2407 19.1771L1.72754 13.3738" stroke="#895F34" stroke-width="1.71" stroke-linecap="round" stroke-linejoin="round"/>
<path d="M22.1932 13.3366L18.698 15.725L13.2748 11.3461L11.2801 12.7979C10.4689 13.3883 9.33582 13.2292 8.71858 12.4384C8.10276 11.6493 8.22156 10.5145 8.98745 9.87007L11.0645 8.12245C12.06 7.28484 13.3542 6.88956 14.6478 7.02798L17.885 7.37434L22.1932 5.04565" stroke="#895F34" stroke-width="1.71" stroke-linecap="round" stroke-linejoin="round"/>
<path d="M13.2756 11.3577C14.5806 12.5203 16.4312 11.9272 17.1193 10.9781" stroke="#895F34" stroke-width="1.71" stroke-linecap="round" stroke-linejoin="round"/>
</svg>
