<svg width="24" height="24" viewBox="0 0 24 24" fill="none" xmlns="http://www.w3.org/2000/svg">
<path d="M10.6468 1.73869C10.5508 1.68134 10.4411 1.65106 10.3293 1.65106C10.2174 1.65106 10.1077 1.68134 10.0117 1.73869C9.9325 1.80143 9.87907 1.89104 9.8615 1.99053C9.84396 2.09003 9.8635 2.19251 9.91642 2.27857C11.8695 5.66071 12.2823 10.2655 9.61472 12.8061C8.58836 11.9436 7.77354 10.8572 7.23292 9.63039C6.24643 10.1783 5.42888 10.9859 4.86902 11.9657C4.30916 12.9455 4.02839 14.0598 4.05719 15.1879C4.09747 16.1824 4.33624 17.1587 4.75947 18.0595C5.18269 18.9604 5.78181 19.7673 6.52159 20.4331C7.26136 21.0989 8.12683 21.61 9.06707 21.9364C10.0073 22.2626 11.0033 22.3976 11.9965 22.3333C17.1095 22.3333 19.7612 19.1576 19.9358 15.1879C20.1423 10.4243 16.7601 4.5651 10.6468 1.73869Z" stroke="#895F34" stroke-width="1.71" stroke-linecap="round" stroke-linejoin="round"/>
</svg>
