<svg width="48" height="48" viewBox="0 0 48 48" fill="none" xmlns="http://www.w3.org/2000/svg">
<rect width="48" height="48" rx="24" fill="#F4E3D4"/>
<path d="M22.6468 13.7388C22.5508 13.6814 22.4411 13.6511 22.3293 13.6511C22.2174 13.6511 22.1077 13.6814 22.0117 13.7388C21.9325 13.8015 21.8791 13.8911 21.8615 13.9906C21.844 14.0901 21.8635 14.1926 21.9164 14.2786C23.8695 17.6608 24.2823 22.2656 21.6147 24.8062C20.5884 23.9437 19.7735 22.8572 19.2329 21.6304C18.2464 22.1783 17.4289 22.986 16.869 23.9658C16.3092 24.9455 16.0284 26.0599 16.0572 27.188C16.0975 28.1824 16.3362 29.1588 16.7595 30.0596C17.1827 30.9604 17.7818 31.7673 18.5216 32.4332C19.2614 33.099 20.1268 33.6101 21.0671 33.9365C22.0073 34.2627 23.0033 34.3977 23.9965 34.3334C29.1095 34.3334 31.7612 31.1577 31.9358 27.188C32.1423 22.4244 28.7601 16.5652 22.6468 13.7388Z" stroke="#895F34" stroke-width="1.71" stroke-linecap="round" stroke-linejoin="round"/>
</svg>
