<svg width="17" height="16" viewBox="0 0 17 16" fill="none" xmlns="http://www.w3.org/2000/svg">
<path d="M8.39929 14.7986C12.2097 14.7986 15.2986 11.7097 15.2986 7.89929C15.2986 4.08892 12.2097 1 8.39929 1C4.58892 1 1.5 4.08892 1.5 7.89929C1.5 11.7097 4.58892 14.7986 8.39929 14.7986Z" stroke="#64626C" stroke-linecap="round" stroke-linejoin="round"/>
<path d="M5.796 8.208C5.796 7.664 5.92133 7.176 6.172 6.744C6.428 6.312 6.772 5.976 7.204 5.736C7.64133 5.49067 8.11867 5.368 8.636 5.368C9.228 5.368 9.75333 5.51467 10.212 5.808C10.676 6.096 11.012 6.50667 11.22 7.04H10.124C9.98 6.74667 9.78 6.528 9.524 6.384C9.268 6.24 8.972 6.168 8.636 6.168C8.268 6.168 7.94 6.25067 7.652 6.416C7.364 6.58133 7.13733 6.81867 6.972 7.128C6.812 7.43733 6.732 7.79733 6.732 8.208C6.732 8.61867 6.812 8.97867 6.972 9.288C7.13733 9.59733 7.364 9.83733 7.652 10.008C7.94 10.1733 8.268 10.256 8.636 10.256C8.972 10.256 9.268 10.184 9.524 10.04C9.78 9.896 9.98 9.67733 10.124 9.384H11.22C11.012 9.91733 10.676 10.328 10.212 10.616C9.75333 10.904 9.228 11.048 8.636 11.048C8.11333 11.048 7.636 10.928 7.204 10.688C6.772 10.4427 6.428 10.104 6.172 9.672C5.92133 9.24 5.796 8.752 5.796 8.208Z" fill="#64626C"/>
</svg>
